<?xml version="1.0" standalone="no"?>
<!DOCTYPE svg PUBLIC "-//W3C//DTD SVG 1.1//EN" "http://www.w3.org/Graphics/SVG/1.1/DTD/svg11.dtd" >
<!--
2013-9-30: Created.
-->
<svg>
<metadata>
Created by iconfont
</metadata>
<defs>

<font id="iconfont" horiz-adv-x="1024" >
  <font-face
    font-family="iconfont"
    font-weight="500"
    font-stretch="normal"
    units-per-em="1024"
    ascent="896"
    descent="-128"
  />
    <missing-glyph />
    
    <glyph glyph-name="ditu" unicode="&#58880;" d="M240.64 556.032q6.144-23.552 13.824-51.2t17.408-56.32 22.016-56.832 26.624-52.736l0-403.456-256-63.488 0 640zM317.44 590.848q0 5.12-0.512 9.728t-0.512 9.728q0 46.08 17.92 86.016t48.64 70.144 71.68 47.616 88.064 17.408 88.064-17.408 71.68-47.616 48.64-70.144 17.92-86.016l0-12.288q0-6.144-1.024-12.288-6.144-54.272-24.064-103.936t-45.568-95.744-63.488-88.576-76.8-81.408q-7.168-7.168-15.36-7.168t-15.36 7.168q-41.984 38.912-77.824 81.92t-63.488 90.112-45.568 97.792-23.04 104.96zM542.72 704.512q-20.48 0-37.888-7.168t-30.208-19.968-20.48-30.208-7.68-36.864 7.68-36.864 20.48-30.208 30.208-19.968 37.888-7.168 38.4 7.168 30.72 19.968 20.48 30.208 7.68 36.864-7.68 36.864-20.48 30.208-30.72 19.968-38.4 7.168zM384 256q29.696-32.768 57.856-59.392t50.688-47.104q26.624-23.552 50.176-41.984 12.288 10.24 27.648 23.552 13.312 11.264 30.72 28.672t39.936 38.912l0-326.656-257.024 63.488 0 320.512zM960.512 576.512l0-641.024-256-63.488 0 392.192q6.144 6.144 11.776 12.8t11.776 12.8q20.48 22.528 37.888 53.76t31.232 66.56 24.576 70.656 18.944 66.048z"  horiz-adv-x="1024" />

    
    <glyph glyph-name="weixin" unicode="&#59036;" d="M668.225 471.2509c10.0166 0 19.9273-0.7355 29.7581-1.8298C671.2451 593.9197 538.1347 686.421 386.1984 686.421c-169.864 0-309.0085-115.7785-309.0085-262.7968 0-84.8625 46.2926-154.5502 123.6504-208.6016l-30.9063-92.954 108.0233 54.1683c38.6534-7.6508 69.6657-15.5165 108.2402-15.5165 9.6968 0 19.3117 0.4787 28.8467 1.2282-6.0372 20.659-9.5349 42.2973-9.5349 64.7481C405.5101 361.6942 521.4414 471.2509 668.225 471.2509zM502.0757 555.0301c23.2672 0 38.6804-15.3066 38.6804-38.5589 0-23.1593-15.4132-38.6788-38.6804-38.6788-23.1603 0-46.3995 15.5195-46.3995 38.6788C455.6762 539.7245 478.9154 555.0301 502.0757 555.0301zM285.8122 477.7935c-23.1573 0-46.5314 15.5195-46.5314 38.6788 0 23.2522 23.3731 38.5589 46.5314 38.5589 23.1593 0 38.5735-15.3066 38.5735-38.5589C324.3857 493.3129 308.9715 477.7935 285.8122 477.7935zM950.2536 230.4092c0 123.5392-123.6264 224.239-262.4741 224.239-147.0245 0-262.8208-100.6997-262.8208-224.239 0-123.7521 115.7974-224.239 262.8208-224.239 30.7724 0 61.8107 7.7597 92.717 15.5055l84.7571-46.4115-23.2392 77.2206C904.04 99.0173 950.2536 160.7214 950.2536 230.4092zM602.5658 269.074c-15.3862 0-30.9063 15.3066-30.9063 30.919 0 15.3966 15.5201 30.902 30.9063 30.902 23.3731 0 38.6804-15.5055 38.6804-30.902C641.2462 284.3806 625.9389 269.074 602.5658 269.074zM772.5367 269.074c-15.2803 0-30.6935 15.3066-30.6935 30.919 0 15.3966 15.4132 30.902 30.6935 30.902 23.1593 0 38.6774-15.5055 38.6774-30.902C811.2151 284.3806 795.6969 269.074 772.5367 269.074z"  horiz-adv-x="1000" />

    
    <glyph glyph-name="shoujianxiang" unicode="&#59270;" d="M893.172 231.8032v-291.41641966746545H135.45671407313543V231.80323740503945H77.17084217353546v-291.41641966746545c0 0 0-58.2835 58.2859-58.2835 13.2626 0 757.7153 0 757.7153 0s58.2849 0 58.2849 58.2835c0 13.5468 0 291.4164 0 291.4164H893.1720494045293zM510.6717 56.9528c44.9094 0 91.072 58.2835 91.072 58.2835l174.8576 233.1329c0 58.2835-58.2859 58.2835-58.2859 58.2835L543.4568 173.5188V698.0701084664597H485.17094610732966v-524.5503548594053L310.3143 406.6527c-58.2859 0-58.2859-58.2835-58.2859-58.2835l174.8576-233.1329C426.8861 115.2363 468.2078 56.9528 510.6717 56.9528z"  horiz-adv-x="1000" />

    
    <glyph glyph-name="lingdaoxinxiang" unicode="&#59092;" d="M528.709632-148.754688c-62.416896 0-122.976256 12.228608-179.994624 36.34688-55.064576 23.291904-104.51456 56.63232-146.976768 99.094528-42.461184 42.463232-75.800576 91.913216-99.09248 146.977792-24.117248 57.018368-36.344832 117.574656-36.344832 179.989504 0 62.418944 12.227584 122.978304 36.344832 179.996672 23.29088 55.0656 56.630272 104.515584 99.09248 146.976768 42.462208 42.461184 91.912192 75.800576 146.977792 99.090432 57.018368 24.116224 117.576704 36.344832 179.994624 36.344832 62.41792 0 122.97728-12.228608 179.994624-36.344832 55.064576-23.29088 104.515584-56.629248 146.976768-99.091456 42.462208-42.461184 75.800576-91.911168 99.09248-146.976768 24.117248-57.018368 36.344832-117.578752 36.344832-179.996672 0-62.413824-12.227584-122.971136-36.344832-179.989504-23.29088-55.064576-56.630272-104.51456-99.09248-146.977792s-91.912192-75.802624-146.976768-99.094528C651.684864-136.52608 591.126528-148.754688 528.709632-148.754688zM528.709632 744.173312c-237.3888 0-430.519296-193.130496-430.519296-430.519296s193.130496-430.519296 430.519296-430.519296 430.519296 193.130496 430.519296 430.519296C959.227904 551.041792 766.098432 744.172288 528.709632 744.173312zM528.709632 255.186688c-4.22912 0-8.285184 1.680384-11.275264 4.670464L379.25376 398.038784c-6.226944 6.226944-6.226944 16.32256 0 22.549504 6.226944 6.227968 16.32256 6.226944 22.549504 0L528.709632 293.68192l205.99808 205.999104L284.217344 499.681024c-8.8064 0-15.944704 7.139328-15.944704 15.944704 0 8.8064 7.138304 15.944704 15.944704 15.944704L773.20192 531.570432c6.449152 0 12.263424-3.885056 14.731264-9.842688 2.46784-5.958656 1.103872-12.816384-3.456-17.37728L539.983872 259.857152C536.993792 256.867072 532.938752 255.186688 528.709632 255.186688zM773.20192 95.734528 284.217344 95.734528c-8.8064 0-15.944704 7.139328-15.944704 15.944704L268.27264 515.625728c0 8.8064 7.138304 15.944704 15.944704 15.944704l340.16256 0c8.8064 0 15.944704-7.139328 15.944704-15.944704 0-8.8064-7.139328-15.944704-15.944704-15.944704L300.162048 499.681024l0-372.056064 457.095168 0L757.257216 388.064c0 8.8064 7.139328 15.944704 15.944704 15.944704S789.147648 396.8704 789.147648 388.064l0-276.383744C789.147648 102.873856 782.00832 95.734528 773.20192 95.734528z"  horiz-adv-x="1024" />

    
    <glyph glyph-name="zonghejianguan" unicode="&#58881;" d="M625.619784 298.846598c-0.116662 0.179079-0.185226 0.345877-0.185226 0.493234C625.435582 299.107541 625.510286 298.957115 625.619784 298.846598zM815.754796 378.802628c0 171.936931-138.35462 311.304072-309.008154 311.304072-170.671954 0-309.027597-139.367141-309.027597-311.304072 0-171.936931 138.35462-311.305095 309.027597-311.305095C677.400176 67.497533 815.754796 206.864674 815.754796 378.802628zM754.139005 459.208912c0.508604 1.089821 1.689548 1.454118 2.180755 2.362814 1.036652 1.89107 0.800258 3.180436 2.07228 4.798283 1.3631 1.763157 3.198986 2.199085 4.724798 3.562129 0.600705 0.562818 0.945574 1.089821 1.236205 1.599428 4.543666-12.812817 8.178598-26.063609 10.833163-39.658232-0.091078-0.10847-0.126895-0.254803-0.236393-0.326435-0.653919-0.545422-4.998032-1.200338-5.869925-1.217734-3.144749-0.12689-5.471842 1.982144-7.725255 3.943822-2.28923 1.998517-4.998032 4.688789-6.615946 7.287987-1.744809 2.781346-0.67234 5.615904-0.545445 8.778944C754.301718 452.993351 753.012299 456.809259 754.139005 459.208912zM740.943955 374.258125c1.180944 2.543939 3.925563 3.381004 5.053293 5.452175 2.399751 4.435009 1.871704 7.414877 4.815876 11.19497 3.163169 4.071735 7.416204 5.053086 10.924241 8.251941 3.68917 3.344165 3.580695 5.996574 5.925186 10.287297 1.708991 3.1262 5.725633 8.360412 9.524301 11.086499 2.054883-13.594623 3.144749-27.553543 3.144749-41.729403 0-24.537859-3.254247-48.310286-9.251067-70.957075-5.107531 1.327228-9.324748 5.053086-13.414047 8.615215-5.308107 4.652973-11.55974 10.868535-15.339988 16.903995-4.035062 6.39771-1.545256 13.013385-1.254625 20.35663C741.325664 359.899092 738.32623 368.696456 740.943955 374.258125zM704.118772 568.514387c-10.651007-0.327458-18.067211-0.363274-26.610121-6.306636-3.452777-2.399653-5.778847-5.580089-10.160824-6.816243-3.925563-1.108241-8.161201-0.145309-12.049924-1.454118-14.03215-4.797259-11.814554-35.113729-30.317712-30.534434-8.687202 2.14485-14.812964 12.504802-19.193917 19.265786-3.852906 5.924943-10.86898 10.851139-6.124739 18.284435-2.162335-0.545422-4.471008 0.071631-6.597525-0.327458 2.981013 6.544043 12.90442 5.980201 14.559174 9.342786 4.12614 8.396227-11.323347 9.269108-15.7043 10.431583 5.271266 5.671163 7.943228-1.907443 13.141837-0.618077 5.016453 1.236154-2.635121 7.887644-5.634555 8.615215-1.089866 0.273223-18.70271-4.907777-8.507093 4.288676-12.596392 8.087189-25.174364 16.176424-37.769733 24.263613-2.108097-8.995885 16.758349-14.121626 22.938348-17.284665-0.962971-3.707438-6.707024-9.123798-11.086954-7.525394-4.14456 1.490957-2.472409 8.397251-8.706646 7.706519-4.471008-10.451026 9.433223-7.397481 10.723665-13.81361 1.454178-7.269567-5.252846-4.180206-7.832707-4.071735-0.618102 0.036839-5.435002 5.053086-5.689816 1.254573-0.326448-4.50664 7.669994-2.744507 8.233859-7.306406-9.306328-0.381693-14.067967 2.99931-21.629486 8.087189-8.851961 5.889127-13.395627 5.380544-24.22879 5.380544 3.234803 1.344624 7.705811 2.325975 10.487272 4.470825 1.509438 1.199315 7.452021 7.014764 7.83373 8.306176 1.672151 5.597485-0.091078 5.179976-5.416582 8.850575-4.725822 3.254114-10.451454 9.105379-16.194484 10.251481-20.75657 4.180206-6.397972-18.866696-22.15651-22.065552 0.272211 0 0.562841-0.01842 0.781838-0.01842l-0.891336 0c0.036841 0 0.072658 0.01842 0.109498 0.01842-3.653353 0.146333-10.488295 1.036609-12.832786-0.908696-1.672151-1.363044-1.799046-6.834662-3.653353-8.833179-3.307461-3.526313-8.215439-4.252861-12.159422-6.797823-3.835509-2.508123-12.323158-8.905834-14.577594-13.232372-8.306517-16.030092 18.739551-20.993127 29.008849-25.663496 4.634744-2.12643 18.175686-5.015224 20.702333-8.54256 3.381142-4.761444-2.908355-9.196453 4.14456-12.540617 2.253413-1.054005 6.924997-1.27197 8.870382 0.926092 3.143725 3.580548-1.291465 4.380774-2.054883 8.524141-1.471575 7.979742 0.945574 4.816702 4.925375 7.780197 8.124361 6.033413 6.289498 6.39771 3.381142 16.030092-1.3631 4.470825-6.47063 16.957207-1.981202 20.247136 5.869925 4.325515 18.375239-2.325975 22.883087-2.87242 5.216005-0.654916 8.197018-7.960299 11.051136-10.94119 1.890124-1.998517 5.270243-6.198166 8.596124-5.742794 5.252846 0.727571 3.053671 5.343705 6.088921 7.487531 8.179622 5.706979 10.324559-2.053776 13.59518-9.81453 3.053671-7.269567 5.962026-9.996678 11.414425-14.648628 2.526647-2.181689 13.63202-9.959839 12.577972-14.758122-0.708157-3.198855-13.377207-8.106632-16.776769-9.179057-12.395816-3.962242-35.643215 6.470365-38.151442-13.322423 4.8169 1.780553 18.484737 13.049201 22.592457 7.705496 1.872727-2.399653-1.471575-5.943362-0.69076-8.341992 2.344491-7.215332 7.85215-4.708232 13.650441-3.544733-0.400129-0.23536-0.799235-0.453325-1.236205-0.653893 7.907411 4.107551 7.088732 3.25309 10.723665 9.887184 1.180944 2.180666 2.944173 7.414877 4.616323 8.977465 5.744053 5.307889 6.634366 1.653663 10.179244-2.452865 0.94455-1.072425 9.742274-13.867846 6.615946-13.21293-10.251902 2.071172-20.06581 1.780553-28.572903-3.853771-4.888534-3.254114-9.524301-7.652284-15.358409-9.81453-1.39994-0.509606-11.778737-1.490957-10.542532 0.290619 1.780626 2.579755 7.943228 4.307096 10.378797 7.124258-6.743864 2.781346-12.359999-3.381004-17.648662-6.997368-5.616135-2.671852-6.92602-7.66968-11.705056-12.04943-2.0907-1.89107-6.033661-2.217505-8.08752-4.725628-1.999622-2.435469-2.236016-6.27082-4.12614-8.579399-1.307839-1.635243-4.707401-0.653893-6.088921-3.089361-1.799046-3.198855 1.653731-6.14393 0.890313-8.433066-1.38152-4.181229-9.251067-7.706519-12.286318-10.723226l1.199364 1.199315c-3.035251-3.198855-6.870759-5.561669-9.251067-9.269108 1.089866-5.253654 4.525245-17.758456 3.561251-20.647249-3.162146-9.451256-9.287908 5.161556-11.777714 8.94165-8.54291 12.977569-25.627707 4.288676-37.296946 3.198855-14.922462-1.363044-29.535874-20.865213-20.339044-36.71418 4.416771-7.597025 11.850371-10.5421 20.374861-8.777921 7.597336 1.562589 9.870193 12.267395 17.013163 12.449543 13.140813 0.363274 0.290631-12.95915-0.836075-17.847483-1.054049-4.526083 1.63531-4.943592 6.270054-6.071276 3.398539-0.817622 8.251256 1.490957 11.214872-0.490164 1.854307-1.236154 1.763229-8.033977 4.344113-5.889127-5.053293-4.216022-3.871326-14.231119 1.290442-17.830087 5.74303-4.016477 12.505314-0.290619 18.521578-1.854231 11.341767-2.908236 5.925186 0.87288 15.903853 6.943133 6.724421 4.089132 7.83373-0.763386 12.414236-0.799202 3.143725 0 5.125951 4.542456 10.360376 3.234671 4.271455-1.089821 5.943606-4.41659 11.032716-5.161556 2.089677-0.327458 4.253035 0.781806 6.234237 0.544399 9.414803-1.054005 16.631454-7.105838 24.046634-12.576433 6.124739-4.507664 10.17822-3.599991 17.322214-5.671163 5.217029-1.489934 14.849805-9.087982 14.358598-15.776312-0.091078-1.199315-4.653164-7.196912-5.435002-9.923 1.344679-0.927115 10.63361 1.163499 13.34139 1.363044-0.804352-0.935302-6.016264-4.66423-7.031425-3.637854 0.851426-1.303692 4.417794-3.311419 5.376671-4.01443 3.308484 10.79588 8.724043 3.853771 15.249934 1.180895 5.543477-2.27174 12.358975-2.399653 18.284161-3.815909 5.016453-1.199315 16.086009-4.617158 19.81202-8.742105 4.471008-4.980431 1.38152-13.068643-1.926965-18.012236-4.344113-6.488785-10.887401-8.996908-13.577783-16.630772-2.144938-6.033413-0.545445-12.140505-1.763229-18.865673-1.636334-9.069563-2.981013-5.889127-8.779304-11.432377-4.871137-4.670369-0.072658-3.853771-6.724421-6.816243-6.688603-2.99931-12.559552-2.108011-17.175875-9.487072 0.181133 0.471744 0.326448 0.908696 0.453343 1.417279-1.944361-2.761903-2.925752-8.396227-3.853929-10.251481-2.32607-4.707209-5.543477-7.66968-9.232647-11.613502-1.398917-1.509377-14.394415-19.37528-15.158856-17.938558-0.962971 1.854231-11.196452-1.89107-11.687659 0.781806 0.400129-2.235924-0.091078-1.472538 2.453989-2.781346-2.363934-14.686491-8.52449-16.866133-22.865691-17.030885 1.235181-7.070023-5.181212-5.65172-8.161201-9.450233-1.744809-2.217505-2.580884-8.451486-3.799692-11.322883-0.744997-1.799996-6.342712-9.015328-6.342712-10.468422 0-1.308809 1.890124-3.234671 3.653353-5.089925-10.106586-2.016937-20.394305-3.416819-30.863156-4.27128 1.962782 2.490727 2.435569 4.671393-3.798668 4.963035 1.672151 4.580319 5.580317 7.160073 7.252468 11.595083 0.781838 2.090615 0.126895 2.908236 0.799235 4.980431 2.272856 7.141654 1.290442 4.433986 0 9.996678-3.01683 12.994965 1.072469 16.538675 4.598926 28.443819 3.599115 12.231579 3.270621 28.080545 5.579294 41.257659 1.089866 6.306636 2.889935 19.428491 0.727601 25.391297-2.453989 6.688329-13.232915 11.995195-18.158289 16.502859-6.979234 6.39771-10.686824 13.340843-15.885433 21.264303-2.635121 3.999081-5.634555 7.960299-7.688414 12.322653-4.37993 9.378601 0.01842 3.799536 0.746021 9.324366 0.708157 5.325285-0.618102 10.086729 1.471575 15.684214 2.32607 6.216585 8.142781 10.069333 10.032905 16.304338 1.727412 5.561669 0.418549 12.540617-5.252846 14.393825-3.162146 1.036609-6.633343-1.363044-9.814932-0.817622-4.416771 0.708128-9.433223 4.033873-12.90442 6.688329-4.83532 3.743254-6.652786 9.778714-11.814554 13.304004-4.325693 2.944052-7.397784 1.180895-12.032527 2.562359-4.8169 1.435699-7.779492 7.43432-11.669239 9.287527-5.852528 2.817162-9.124172-1.216711-15.285751-0.400113-5.252846 0.690732-13.231891 6.544043-18.139869 8.761548-9.941827 4.470825-16.012328 9.432837-19.993152 19.61064-3.398539 8.723685-8.379174 12.795421-14.231702 20.064988-5.925186 7.360641-7.779492 13.649881-16.922085 15.612583-1.072469 0.217964 2.236016-7.742335 2.580884-8.378831 3.271644-6.088672 8.161201-11.651364 12.105185-17.321504 5.816711-8.360412 3.325881-9.923-2.562464-1.854231-6.761261 9.232269-14.594991 18.429745-20.447519 28.225855-2.217595 3.689019-1.780626 6.088672-5.435002 9.596566-3.525434 3.3984-8.142781 5.053086-11.705056 8.269337-12.777525 11.596106-15.104618 27.04496-13.650441 43.548842 0.490184 5.379521 2.417148 9.705036 1.562653 14.866592-0.708157 4.288676-3.217407 7.851828-6.361132 11.014868-1.018231 1.616824-3.562275 5.634324-3.70759 5.888104-2.908355 4.835122-5.161768 9.633405-9.779115 13.595646-2.635121 2.307555-9.48746 7.66968-15.922274 12.17632 28.954612 36.349883 66.832819 65.176418 110.272924 83.096557 0.363289-2.216481 1.290442-4.39817 2.690382-6.506181 3.580695-5.343705 6.979234-4.925173 13.959492-6.39771-0.744997-8.160867-10.215061-8.214079-16.613033-7.342222-7.652597 1.052982-15.68588 3.616364-22.320246-3.127224 3.67075-2.217505 13.704678-10.851139 12.377396-1.835811 7.325126 0.381693 14.395438 0.600681 21.556828-0.290619 2.871515-0.344854 12.486894-3.616364 15.103595-2.12643 1.090889 0.618077 2.254436 6.071276 3.416959 7.742335-2.035439-0.01842-4.234615 1.01819-6.270054 0.836041 4.744242 6.107091 9.46904 1.307785 15.503724-1.509377-6.634366-4.071735-2.690382-13.831007 3.798668-5.906523 5.343924 6.525624-1.308862 11.250228-8.088544 15.049764 6.833919 8.615215 11.051136 9.377578 17.484926-0.327458 1.072469 5.997598 5.870948 3.598968 10.887401 3.163039l0 1.489934c-2.217595-0.071631-4.562086 1.236154-6.761261 0.981351 5.125951 8.233522 1.854307 10.106172 9.161012 12.795421 5.834108 2.12643 22.447141 0.146333 24.482581 5.652743-11.615001-2.272763-25.664548-2.817162-36.151819-8.142447-4.525245-2.308579-9.90601-9.54233-14.432279-4.835122-4.616323 4.835122 3.325881 12.595876 7.379363 14.976086l-0.962971 0c18.376262 3.943822 37.423841 6.052856 56.98207 6.052856 12.613789 0 25.028025-0.945535 37.204845-2.617617-4.216194-2.217505-1.089866-3.744277-4.160933-5.997598-5.870948-4.362354-16.267142-7.997138-23.247399-10.723226 8.869358 0.01842 30.336132-8.396227 34.461248 4.14439-2.853095 0.436952-5.707213 0.890276-8.578727 1.344624 5.343924 3.562129 11.304927 6.451946 17.576004 8.578376 56.473466-11.286044 106.710649-40.148395 144.934749-80.643692C704.663194 568.514387 704.392006 568.514387 704.118772 568.514387zM500.621904 431.691185c0.035817 0.036839 0.071634 0.072655 0.108475 0.146333-0.127919 0.599657-0.218996 1.12666-0.273234 1.52575C500.511382 432.800449 500.566643 432.237631 500.621904 431.691185zM622.34507 300.739714c-0.726577 0.12689-2.380308-0.091074-3.035251 0.381693C618.910714 299.721525 619.509373 299.194522 622.34507 300.739714zM619.30982 301.121408c-0.01842 0.01842-0.055261 0.01842-0.072658 0.035816C619.237162 301.138804 619.292423 301.138804 619.30982 301.121408zM358.77562 22.823054l0 0.10847C216.968223 82.909547 117.436361 223.585497 117.436361 387.597945s99.531862 304.689421 241.339259 364.66642L358.77562 788.034033C198.137594 726.165963 83.919663 570.441273 83.919663 387.597945c0-178.079838 108.492298-330.169745 262.532799-395.128199l-22.356063-55.143924 95.750591 40.494273-40.386434 96.000448L358.77562 22.823054zM679.581954 781.85531l17.484926 48.817846-93.988385-44.419675 44.314044-94.219895 20.992963 58.614979c140.046215-60.759829 238.177113-200.309118 238.177113-363.049596 0-164.012448-99.531862-304.688397-241.339259-364.66642l0-35.751249c160.639049 61.84965 274.855957 217.575364 274.855957 400.417669C940.07829 564.897 832.549986 716.424088 679.581954 781.85531z"  horiz-adv-x="1024" />

    
    <glyph glyph-name="falvfagui" unicode="&#58882;" d="M807.36 745.216l-140.608-312.192L625.856 433.024l150.016 330.688-231.68 0 0-772.544c47.808-1.856 291.264-80.832 291.264-80.832l0-39.744L180.8-129.408l0 42.24c0 0 243.776 78.336 281.216 78.336L462.016 763.648 243.072 763.648l150.016-330.688-40.96 0L211.52 745.216 70.784 433.024 29.888 433.024l150.912 334.272L180.8 805.76l2.56 0 249.216 0c0 50.432 33.856 91.648 73.28 91.648 41.728 0 73.28-43.52 73.28-91.648l256.384 0 0-33.024 153.472-339.776-41.024 0L807.36 745.216zM395.648 389.76c0-100.352-69.696-191.744-184.128-191.744-111.936 0-184.128 91.392-184.128 191.744C27.328 389.568 395.648 389.568 395.648 389.76zM628.352 389.76c0-0.128 368.256-0.128 368.256 0 0-100.352-69.632-191.744-184.128-191.744C700.608 198.016 628.352 289.344 628.352 389.76z"  horiz-adv-x="1024" />

    
    <glyph glyph-name="xiaquguanli" unicode="&#58883;" d="M335.625439 680.918433c0 17.939581-13.114206 32.475646-30.945024 32.475646l-33.303841 0c-17.829794 0-30.945024-14.536065-30.945024-32.475646l0-33.478486 95.192866 1.02433L335.624415 680.918433zM335.625439 614.646054l-95.192866 0L240.432572 186.204122l95.192866 0L335.625439 614.646054zM271.377596 91.510436l33.303841 0c17.830818 0 30.945024 14.546298 30.945024 32.476669l0 29.752628-95.192866 0 0-29.752628C240.432572 106.056734 253.546779 91.510436 271.377596 91.510436zM498.428869 747.544877c0 17.918092-14.447629 32.464389-32.289703 32.464389l-66.595403 0c-17.842075 0-29.601368-14.546298-29.601368-32.464389l0-33.82027 128.486474-1.014096L498.428869 747.544877zM498.428869 652.410146 369.942395 652.410146l0-464.850144 128.486474-0.342808L498.428869 652.410146zM399.543763 91.510436l66.595403 0c17.842075 0 32.289703 14.546298 32.289703 32.476669l0 29.4221L369.942395 153.409205l0-29.4221C369.942395 106.056734 381.701688 91.510436 399.543763 91.510436zM562.346169 90.508619l97.551684 0c17.830818 0 32.289703 14.535041 32.289703 32.464389L692.187557 680.588929c0 17.929348-14.458886 32.464389-32.289703 32.464389l-97.551684 0c-17.829794 0-32.28868-14.535041-32.28868-32.464389l0-557.616944C530.057489 105.04366 544.516375 90.508619 562.346169 90.508619zM789.077134 415.153534c0 17.929348-12.4521 32.464389-30.282918 32.464389l-5.047153 0c-17.832864 0-28.939262-15.889899-28.939262-33.819247l0-63.904449 64.269332 0L789.077134 415.153534zM789.077134 315.73115l-64.269332-0.340761 0-95.365998 64.269332 1.355881L789.077134 315.73115zM753.748086 90.508619l5.047153 0c17.830818 0 30.282918 14.535041 30.282918 32.464389L789.078157 187.217195l-64.269332-1.343601 0-64.257489C724.807801 103.68778 735.915222 90.508619 753.748086 90.508619zM964.653995 25.579841c0 0 3.042414 27.383674-9.081191 33.477462L821.344324 189.929979l0-106.529245c0 0 7.075429-27.384697-30.260404-27.384697L238.074778 56.016037c0 0-30.273708 2.016937-30.273708 35.494399l0 97.40647L71.567851 59.057303c0 0-10.094306 2.028193-9.080168-30.436196 0-38.546921 10.094306-37.533848 10.094306-37.533848l880.918535 0.154519C970.647745-9.772318 964.653995 25.579841 964.653995 25.579841z"  horiz-adv-x="1024" />

    
    <glyph glyph-name="chaxuntongji" unicode="&#58884;" d="M65.085964-5.535831l102.056462 0 0 100.733239L65.085964 95.197408 65.085964-5.535831zM192.666775-5.535831l102.056462 0L294.723237 195.93167l-102.056462 0L192.666775-5.535831zM941.433203 81.096249l-158.721295 153.035442c-18.398776 17.739013-45.965728 19.675108-67.448875 7.635911L630.351746 323.634144c44.75306 47.921429 72.212561 111.135146 72.212561 180.707688 0 149.408845-125.644636 270.529413-280.622523 270.529413s-280.622523-121.120568-280.622523-270.529413c0-123.975593 86.475987-228.446969 204.431185-260.452917l0-249.424746 102.056462 0L447.806907 234.953406c52.558136 4.687766 100.820257 23.486924 140.981555 52.224432l86.784015-83.674725c-12.485871-20.716834-10.486248-47.282886 7.912528-65.021899l158.741761-153.035442c21.93035-21.142529 57.451787-21.142529 79.381114 0l19.8243 19.1215C963.363553 25.688311 963.363553 59.975209 941.433203 81.096249zM447.806907 304.125835l0 42.905182-102.056462 0 0-30.989805c-78.880697 29.29214-134.85477 103.052051-134.85477 189.406814 0 31.628348 8.145851 61.172221 21.526128 87.843674 15.548751-14.080693 39.307825-35.817764 39.307825-36.966936 0 23.651676 74.659386 95.639221 97.461629 95.639221-1.17071 0-23.269913 21.683858-37.904815 36.190247 27.396053 12.580526 57.707624 20.206204 90.081242 20.206204 116.22267 0 210.450519-90.842984 210.450519-202.913433C631.818204 402.032702 551.55087 316.667475 447.806907 304.125835z"  horiz-adv-x="1024" />

    
    <glyph glyph-name="renwu" unicode="&#58885;" d="M859.682607 719.020216l-93.720521 0 0-153.724127-509.657652 0L256.304434 719.020216 164.295903 719.020216c-19.22383 0-34.808784-15.58393-34.808784-34.808784l0-714.358801c0-19.22383 15.58393-34.808784 34.808784-34.808784l695.387727 0c19.22383 0 34.808784 15.58393 34.808784 34.808784L894.492414 684.211433C894.491391 703.435263 878.907461 719.020216 859.682607 719.020216zM782.415826 420.976146l-301.636898-369.311207c1.376347-4.580319-5.431709-5.266957-10.012028-1.52575l-219.46541 179.713035c-4.580319 3.740184-5.266957 10.549264-1.52575 15.129582l36.612872 44.826951c3.740184 4.580319 10.54824 5.266957 15.128559 1.52575L468.054115 153.507442l257.995959 315.880297c3.740184 6.385431 10.549264 7.071046 15.129582 3.330862l42.541909-34.746362C788.30086 434.231031 790.935873 430.731324 782.415826 420.976146zM642.560568 763.817492 642.560568 792.066883c0 28.717042-23.280216 51.997258-51.997258 51.997258L433.162444 844.064141c-28.717042 0-51.997258-23.280216-51.997258-51.997258l0-28.249391-61.132312 0 0-140.192949 382.479111 0 0 140.192949L642.560568 763.817492zM512.118704 675.241131c-31.674397 0-57.352219 25.677822-57.352219 57.352219 0 31.674397 25.677822 57.352219 57.352219 57.352219s57.352219-25.677822 57.352219-57.352219C569.470923 696.279283 543.7931 675.241131 512.118704 675.241131z"  horiz-adv-x="1024" />

    
    <glyph glyph-name="daiyue" unicode="&#58886;" d="M816.037063 767.737778c-205.773574 0-403.080312 0-609.118921 0-51.557236 0-50.763151-49.190329-50.763151-49.190329l0-664.007019c0-48.427966 50.763151-49.189306 50.763151-49.189306l609.118921 0c48.390104 0 50.760081 49.189306 50.760081 49.189306L866.797144 718.552565C866.797144 718.552565 866.806353 767.737778 816.037063 767.737778L816.037063 767.737778zM841.417103 718.552565l0-664.011112c0-23.614837-25.38004-24.591071-25.38004-24.591071L206.919165 29.950382c0 0-25.381064-0.88823-25.381064 24.591071L181.538101 718.552565c0 0 1.579985 24.591071 25.381064 24.591071 214.918861 0 393.896138 0 609.118921 0C844.490092 743.143637 841.417103 718.552565 841.417103 718.552565zM303.406706 466.051761l53.320393 0 0-24.607444-53.320393 0 0 24.607444ZM410.045445 466.051761l328.114946 0 0-24.607444-328.114946 0 0 24.607444ZM303.406706 322.858478l53.320393 0 0-24.608467-53.320393 0 0 24.608467ZM410.045445 322.858478l328.114946 0 0-24.608467-328.114946 0 0 24.608467ZM303.406706 180.657802l53.320393 0 0-24.610514-53.320393 0 0 24.610514ZM410.045445 180.657802l328.114946 0 0-24.610514-328.114946 0 0 24.610514ZM303.406706 608.064149l53.320393 0 0-24.609491-53.320393 0 0 24.609491ZM410.045445 608.064149l328.114946 0 0-24.609491-328.114946 0 0 24.609491Z"  horiz-adv-x="1024" />

    
    <glyph glyph-name="17" unicode="&#59236;" d="M512 167.224c82.614 0 149.609 66.994 149.609 149.609L661.609 597.376C661.609 680.005 594.614 747 512 747s-149.608-66.995-149.608-149.624l0-280.543C362.392 234.218 429.386 167.224 512 167.224zM392.316 597.376c0 66.001 53.683 119.699 119.684 119.699s119.685-53.698 119.685-119.699l0-280.543c0-66.001-53.684-119.685-119.685-119.685s-119.684 53.684-119.684 119.685L392.316 597.376zM777.567 447.154l0-130.321c0-146.438-119.129-265.567-265.567-265.567-146.438 0-265.566 119.129-265.566 265.567L246.434 447.154l-29.939 0 0-130.321c0-155.498 121.686-284.869 277.037-294.542l3.507-0.22 0-139.146L388.561-117.075 388.561-147l246.879 0 0 29.925L526.963-117.075 526.963 22.071l3.507 0.22c155.351 9.673 277.036 139.044 277.036 294.542L807.506 447.154 777.567 447.154z"  horiz-adv-x="1024" />

    
    <glyph glyph-name="51" unicode="&#58904;" d="M619.328-64.128 114.752-64.128c-28.032 0-50.88 24-50.88 53.184l0 579.84 250.944 262.912 370.432 0c31.36 3.52 54.336-20.544 50.88-49.792l0.32-300.032-0.384 0L736.064 436.48l-60.544 0-9.344 0L666.176 481.984 666.176 762.048 329.92 762.048l0-210.048L133.952 552l0-546.24 485.376 0L619.328-64.128zM960.128 223.616l-160.384 0L799.744 384l-127.168 0 0-160.32L512 223.68l0-127.168 160.384 0 0-160.576 127.232 0 0 160.384 160.512 0L960.128 223.616z"  horiz-adv-x="1024" />

    
    <glyph glyph-name="caiwu" unicode="&#58887;" d="M512.110517 835.930903c-249.669316 0-452.04142-202.327078-452.04142-451.997418 0-249.561869 202.372104-451.863365 452.04142-451.863365 249.494331 0 451.820386 202.301496 451.820386 451.863365C963.930903 633.603825 761.604848 835.930903 512.110517 835.930903zM684.022888 385.435699l0-63.8584L548.798091 321.577299l0-36.781718L684.022888 284.795581l0-60.745503L548.798091 224.050078l0-112.047935-72.054059 0L476.744032 224.050078 340.769151 224.050078l0 60.745503 135.974881 0 0 36.781718L340.769151 321.577299l0 63.8584 107.552551 0L314.868247 631.128447l80.228229 0 97.033987-181.698249c8.089235-15.121396 14.367219-28.271904 19.490913-40.055275 5.440919 11.426237 12.290931 25.840528 21.090341 43.192731l91.723028 178.560792 84.787058 0L576.383356 385.435699 684.022888 385.435699z"  horiz-adv-x="1024" />

    
    <glyph glyph-name="iconlujing" unicode="&#58956;" d="M687.167508 410.875091c0 0 176.703491 128.892579 175.860287 236.075717-0.729617 92.941785-78.736249 168.288844-175.860287 168.288844-97.128131 0-170.115446-75.502601-175.860287-168.288844C504.657778 539.818835 687.167508 410.875091 687.167508 410.875091zM684.264389 727.732645c42.512233 0 76.972069-33.942043 76.972069-75.812663 0-41.875736-34.459836-75.822896-76.972069-75.822896-42.512233 0-76.972069 33.94716-76.972069 75.822896C607.29232 693.790602 641.752156 727.732645 684.264389 727.732645zM463.404212 266.71683c6.090718 8.968256 11.510148 18.35095 16.20303 28.088732 14.926968 29.073152 24.080441 58.513672 23.849174 86.851067-1.045819 127.795595-112.482841 231.403301-251.232928 231.403301-0.323365 0-0.64366-0.010233-0.967024-0.011256-0.328481 0.001023-0.654916 0.011256-0.984421 0.011256-138.201595 0-250.239298-101.739149-250.239298-227.242538 0-6.634094 0.331551-13.19758 0.945535-19.687388 0.711198-12.157901 3.087315-24.467251 6.856152-36.815487 7.037277-24.972764 18.640546-48.282656 33.938973-69.169359 71.278393-108.441804 210.450083-203.092511 210.450083-203.092511S392.483976 155.534612 463.404212 266.71683zM248.083192 309.782671c-56.68093 0-102.629425 45.25981-102.629425 101.092419 0 55.832609 45.948495 101.092419 102.629425 101.092419 56.68093 0 102.629425-45.25981 102.629425-101.092419C350.712617 355.042481 304.765145 309.782671 248.083192 309.782671zM914.77946 251.426589c-254.245542 47.458895-204.858738 108.904339-204.858738 108.904339l-51.314713 0c-27.497261-160.720472 410.742828-101.879342 240.365416-238.005672-150.838404-120.514771-508.856403-14.728446-508.856403-14.728446l-51.319829-50.544163C911.267473-133.241374 1112.382956 214.540494 914.77946 251.426589z"  horiz-adv-x="1024" />

    
    <glyph glyph-name="richenganpai" unicode="&#58908;" d="M286.305 153.853l452.223 0 0 349.484-452.223 0 0-349.484zM635.756 462.212l61.654 0 0-61.689-61.654 0 0 61.689zM635.756 359.438l61.654 0 0-61.654-61.654 0 0 61.654zM635.756 256.626l61.654 0 0-61.689-61.654 0 0 61.689zM532.98 462.212l61.617 0 0-61.689-61.617 0 0 61.689zM532.98 359.438l61.617 0 0-61.654-61.617 0 0 61.654zM532.98 256.626l61.617 0 0-61.689-61.617 0 0 61.689zM430.137 462.212l61.689 0 0-61.689-61.689 0 0 61.689zM430.137 359.438l61.689 0 0-61.654-61.689 0 0 61.654zM430.137 256.626l61.689 0 0-61.689-61.689 0 0 61.689zM327.361 462.212l61.689 0 0-61.689-61.689 0 0 61.689zM327.361 359.438l61.689 0 0-61.654-61.689 0 0 61.654zM327.361 256.626l61.689 0 0-61.689-61.689 0 0 61.689zM512.451 871.484c-266.375 0-482.258-215.883-482.258-482.153 0-266.306 215.883-482.188 482.258-482.188 266.237 0 482.188 215.883 482.188 482.188 0 266.237-215.954 482.153-482.188 482.153zM594.595 668.449c0 22.354 18.117 40.469 40.539 40.469 22.354 0 40.469-18.117 40.469-40.469l0-42.397c0-22.354-18.079-40.469-40.469-40.469-22.388 0-40.539 18.079-40.539 40.469l0 42.397zM347.958 668.449c0 22.354 18.117 40.469 40.505 40.469 22.317 0 40.469-18.117 40.469-40.469l0-42.397c0-22.354-18.151-40.469-40.469-40.469-22.388 0-40.505 18.079-40.505 40.469l0 42.397zM779.619 153.853c0-22.699-18.391-41.091-41.091-41.091l-452.223 0c-22.699 0-41.124 18.391-41.124 41.091l0 452.257c0 22.734 18.427 41.124 41.124 41.124l41.091 0 0-20.564c0-34.029 27.623-61.654 61.689-61.654 34.029 0 61.654 27.591 61.654 61.654l0 20.564 123.337 0 0-20.564c0-34.029 27.655-61.654 61.721-61.654 33.996 0 61.654 27.591 61.654 61.654l0 20.564 41.091 0c22.699 0 41.091-18.391 41.091-41.124l0-452.257z"  horiz-adv-x="1024" />

    
    <glyph glyph-name="shenpi" unicode="&#58978;" d="M873.827257 411.217898l-15.690354 0c-14.128789 0-25.582655-11.453866-25.582655-25.582655l0-66.799382 0-0.738827 0-251.975848c0-18.501376-14.985296-33.472346-33.472346-33.472346L163.11245 32.64884c-18.48398 0-33.472346 14.97097-33.472346 33.472346L129.640104 668.618293c0 18.501376 14.988366 33.472346 33.472346 33.472346l453.562053 0 0.095167 0.095167c0.096191-0.001023 0.191358-0.007163 0.288572-0.007163l67.538209 0c14.128789 0 25.582655 11.453866 25.582655 25.582655l0 15.690354c0 14.128789-11.453866 25.582655-25.582655 25.582655l-0.980327 0-66.557882 0L129.640104 769.034307c-36.96796 0-66.943668-29.973662-66.943668-66.943668l0-669.440775c0-36.968983 29.974685-66.944691 66.943668-66.944691l702.913121 0c36.972053 0 66.943668 29.975708 66.943668 66.944691L899.496893 385.777483l-0.089028-0.089028C899.380236 399.792685 887.93865 411.217898 873.827257 411.217898zM973.791993 626.09071c-1.248434 3.015683-3.094478 5.843078-5.54632 8.29492l-96.968495 96.968495c-0.36225 0.36225-0.734734 0.707105-1.112334 1.042749l-6.374174 6.374174c-9.990538 9.990538-26.188452 9.990538-36.178991 0L404.649552 315.809945c-5.727445-5.727445-8.16496-13.493316-7.325849-20.961404-0.107447-0.950651-0.167822-1.914606-0.167822-2.892887l0-84.406388 0-15.690354 0-0.568958c0-14.128789 11.453866-25.582655 25.582655-25.582655l15.690354 0c1.842974 0 3.638877 0.199545 5.371334 0.568958l78.997192 0c8.192589-1.743714 17.073864 0.559748 23.437805 6.92369l422.962128 422.962128C977.299887 604.262566 978.830753 616.445026 973.791993 626.09071zM511.619842 233.131921l-47.608298 0 0 47.492664 52.228525 52.228525 47.549969-47.549969L511.619842 233.131921zM611.065761 332.576817l-47.549969 47.549969L845.735455 662.347472l47.549969-47.549969L611.065761 332.576817z"  horiz-adv-x="1024" />

    
    <glyph glyph-name="ditu1" unicode="&#59094;" d="M505.70462 109.769424l-15.790638 14.607696c-11.697413 10.8143-27.716248 25.625634-49.866734 48.805566-14.610766 15.291265-65.710584 70.568219-109.818151 139.836839-48.185442 75.673493-71.344908 141.991921-68.835761 197.114356 2.923586 64.150042 29.815049 123.889635 75.719542 168.215166 46.616714 45.013193 108.648512 69.802786 174.669158 69.802786 68.432579 0 134.733611-27.263947 181.901887-74.801636 44.677549-45.027519 69.015863-103.95256 68.532863-165.921937-0.005117-0.959861-0.057305-4.681626-0.49835-10.539031-0.552585-8.66945-1.698688-17.642822-3.405563-26.673499-5.425569-31.382754-18.584264-79.709413-50.464345-132.030036-16.765849-27.513634-40.005133-58.643632-69.070098-92.52223-24.547069-30.422893-49.974182-57.756425-71.682599-77.060073-11.973706-11.93789-19.677155-19.205411-20.524452-20.00359L505.70462 109.769424zM511.783059 707.221632c-55.356772 0-107.291608-20.710694-146.236596-58.316174-38.349423-37.031405-60.817134-86.974887-63.262836-140.632971-2.119267-46.542013 18.900465-104.83772 62.472843-173.266206 42.10598-66.125023 90.925872-118.934786 104.885815-133.544529 14.395872-15.066137 26.139334-26.491351 35.730783-35.541471l13.074783 12.423961c0.397043 0.373507 8.154727 7.68196 20.159132 19.660782l0.883113 0.830925c20.211321 17.909905 44.225247 43.75248 67.61905 72.767304l0.403183 0.485047c27.726481 32.298614 49.723471 61.70434 65.38108 87.399559 28.582989 46.907333 40.307008 89.978291 45.109384 117.849058l0.062422 0.340761c1.419326 7.472182 2.364861 14.849196 2.811022 21.924335l0.01842 0.261966c0.37146 4.89959 0.391926 7.720845 0.391926 7.838525 0.399089 51.02307-19.723204 99.597369-56.657394 136.820132C625.090685 684.368134 569.381895 707.221632 511.783059 707.221632zM511.777943 410.395296c-56.967456 0-103.314017 44.853557-103.314017 99.985202 0 55.131645 46.346561 99.984179 103.314017 99.984179s103.314017-44.852534 103.314017-99.984179C615.09196 455.248853 568.745399 410.395296 511.777943 410.395296zM511.777943 569.432429c-34.397415 0-62.381769-26.490328-62.381769-59.051931 0-32.562627 27.984355-59.052954 62.381769-59.052954 34.397415 0 62.381769 26.491351 62.381769 59.052954C574.159712 542.942101 546.175357 569.432429 511.777943 569.432429zM947.035094 475.98513 809.91104 427.671775 822.401516 388.555895 918.92078 422.54808 918.945339-27.013869 647.434575-97.918755 361.493148-21.106322 104.636129-82.565069 104.636129 355.940057 204.328665 423.094526 177.207981 453.856134 63.641459 378.990029 63.655785 378.964446 63.641459 378.964446 63.641459-129.816233 104.636129-129.816233 104.636129-129.804976 360.984564-66.455159 647.077441-147.454962 959.828468-57.252567 959.940009-57.252567 959.940009 442.169977Z"  horiz-adv-x="1024" />

    
    <glyph glyph-name="ren" unicode="&#59013;" d="M963.523115-94.162334 67.443553-94.162334c-10.015098 0-19.442818 4.729721-25.430182 12.758582s-7.831362 18.412348-4.975315 28.011984c10.82351 36.368302 44.74918 94.995561 144.912437 167.765935 79.006402 57.397245 170.766268 101.408621 210.473619 109.268636l9.239432 1.829671 4.060479 8.283664c4.049223 8.256034 7.323802 23.76424 8.5487 40.47176l0.556679 7.661494-5.233188 5.777587c-2.184759 2.412956-6.930853 6.840802-11.955286 11.527544-26.181289 24.421202-74.915223 69.87851-88.50473 128.289851l-2.023076 8.689916-8.258081 3.851725c-12.825097 5.987365-23.803125 19.844977-30.924313 39.025828-5.602601 15.030321-8.289804 32.014134-7.552 47.786353 0.865717 18.530029 6.232958 34.424021 15.520485 45.960775l4.02057 4.995781 0 6.351662c0 1.068332-0.074701 2.24411-0.222057 3.493567-0.00921 0.079818-0.01842 0.158612-0.026606 0.237407-2.792603 25.360598 1.39272 63.370283 10.92277 99.19521 8.738012 32.849152 26.14445 79.71146 59.448974 116.4195C386.287345 843.444017 441.939853 863.701386 515.453147 863.701386c73.465199 0 129.131009-20.272719 165.452239-60.253292 62.696947-69.098751 66.140373-178.468694 62.178131-214.781738-0.031722-0.293689-0.068562-0.585331-0.10847-0.877997-0.224104-1.630127-0.224104-2.856048-0.224104-3.586688l0-6.348592 4.02364-5.003967c9.273201-11.530614 14.639418-27.405163 15.512299-45.903469 0.7552-15.994276-1.859347-32.532951-7.562233-47.827285-6.990205-18.889209-18.2302-33.122375-30.810726-38.977733l-8.230452-3.835352-2.037403-8.668427c-14.688537-62.530149-64.337307-111.929232-85.538165-133.024689-2.857071-2.841721-5.555529-5.525853-6.77838-6.879688l-5.287423-5.842055 0.61603-7.750521c1.399883-17.588587 4.562922-32.352849 8.677637-40.504506l4.095271-8.120958 9.092076-1.805112c39.732933-7.897877 131.49894-51.938929 210.483852-109.323894 100.162234-72.780607 134.093021-131.408889 144.920624-167.775144 2.858094-9.599635 1.01512-19.984147-4.972245-28.015054C982.966956-89.432613 973.539236-94.162334 963.523115-94.162334zM119.516536-30.71735l791.929504 0c-21.303188 29.255301-55.67502 61.763692-99.732445 93.777827-81.396845 59.135842-162.262594 93.792153-185.550996 98.42159l-24.263613 4.816702c-9.580193 1.90028-17.750269 8.109702-22.148439 16.830317l-11.05887 21.927405c-8.019651 15.884782-13.162788 37.440727-15.281031 64.056921l-1.699712 21.403472c-0.692778 8.711406 2.238994 17.321504 8.103562 23.800056l14.46648 15.98302c2.336208 2.582825 5.309936 5.54325 9.075703 9.289574 18.821671 18.726503 57.985646 57.694003 68.524676 102.55984l5.561669 23.663956c2.224668 9.466606 8.668427 17.389042 17.482163 21.496593l17.72571 8.260128c0.680499 1.154289 1.613754 2.981914 2.598174 5.641487 5.589298 14.991436 3.628644 28.858258 1.861394 32.154327l-10.806113 13.440104c-4.5312 5.634324-7.000438 12.647041-7.000438 19.8767l0 17.520025c0 1.671059 0 6.02932 0.74599 11.7056 3.552919 33.577746-3.031033 117.404943-46.119387 164.893514C610.151949 786.976958 570.285986 800.256402 515.453147 800.256402c-54.863539 0-94.706989-13.253862-118.42211-39.395242-46.042639-50.746778-57.33687-137.954979-54.30686-165.937287 0.425695-3.656273 0.64059-7.281847 0.64059-10.777461l0-17.531282c0-7.234775-2.473331-14.252609-7.008624-19.888979l-10.810207-13.43294c-2.13871-3.943822-3.362584-18.140149 1.849114-32.120558 0.99977-2.691295 1.929955-4.519943 2.600221-5.664l17.925255-8.359388c8.831132-4.118807 15.280008-12.06785 17.489326-21.559015l5.52176-23.727401c9.208732-39.582507 47.254234-75.069743 69.985958-96.272647 6.557346-6.117324 11.737322-10.94733 15.71389-15.343453L470.96491 314.421318c5.819542-6.424316 8.756431-14.950504 8.127098-23.597441l-1.543146-21.215184c-1.078565-14.712073-4.440126-42.534745-14.857383-63.779605l-10.971889-22.3838c-4.356214-8.888438-12.612249-15.232936-22.320355-17.155728l-24.650423-4.882194c-23.27203-4.606925-104.099916-39.220257-185.505971-98.361215C175.18644 31.038156 140.817678-1.466142 119.516536-30.71735z"  horiz-adv-x="1024" />

    
    <glyph glyph-name="21banjieyewu" unicode="&#58888;" d="M841.376 83.52c-4.096 0-8.192 1.568-11.328 4.672l-225.888 225.888-126.912-127.008c-14.656-14.688-38.624-14.688-53.344-0.032l-12.736 12.832c-11.392 11.296-20.064 32.128-20.064 48.352l0 86.912c0 7.808-5.184 20.352-10.656 25.792l-56.16 56.192c-5.376 5.376-18.144 10.656-25.792 10.656L211.52 427.776c-17.728 0-23.84 10.048-25.6 14.4-1.792 4.32-4.64 15.744 7.904 28.288l273.504 273.536c12.64 12.576 24.032 9.696 28.352 7.904 4.32-1.792 14.368-7.904 14.368-25.6l0-86.912c0-7.776 5.184-20.288 10.656-25.824l56.16-56.16c5.504-5.472 18.016-10.656 25.824-10.656l86.944 0c16.192 0 36.96-8.64 48.384-20.064l12.736-12.704c7.104-7.104 11.04-16.576 11.04-26.688 0-10.08-3.936-19.584-11.04-26.656-6.24-6.24-16.384-6.24-22.624 0s-6.24 16.384 0 22.624c1.92 1.92 1.92 6.176 0 8.064l-12.736 12.736c-5.472 5.504-18.016 10.688-25.76 10.688l-86.944 0c-16.192 0-36.992 8.64-48.448 20.032l-56.192 56.192c-11.424 11.488-20 32.288-20 48.416L478.048 709.376 228.48 459.904l70.016-0.064c16.16 0 36.992-8.64 48.416-20.032l56.16-56.192c11.392-11.36 20.032-32.192 20.032-48.448l0-86.912c0-7.616 5.312-20.352 10.688-25.696l12.8-12.864c2.144-2.144 5.92-2.144 8.096 0.064l138.208 138.272c6.016 6.016 16.64 6.016 22.624 0l237.184-237.184c6.24-6.24 6.24-16.384 0-22.624C849.568 85.088 845.472 83.52 841.376 83.52zM864.448 863.584c70.112 0 127.264-58.944 127.264-131.392l0-694.528c0-72.448-57.12-131.36-127.264-131.36L159.616-93.696c-70.176 0-127.296 58.944-127.296 131.36L32.32 732.192c0 72.448 57.088 131.392 127.296 131.392L864.448 863.584M864.448 895.584 159.616 895.584c-87.968 0-159.296-73.184-159.296-163.392l0-694.528c0-90.208 71.328-163.36 159.296-163.36l704.832 0c87.936 0 159.264 73.152 159.264 163.36L1023.712 732.192C1023.68 822.432 952.384 895.584 864.448 895.584L864.448 895.584z"  horiz-adv-x="1024" />

    
    <glyph glyph-name="12yiban" unicode="&#58889;" d="M458.592 107.616 257.92 308.384 285.856 336.32 458.592 163.488 738.144 443.072 766.08 415.136ZM896.896-128 127.04-128c-25.632 0-46.432 20.832-46.432 46.464L80.608 695.936c0 25.6 20.8 46.464 46.432 46.464l91.424 0 0-39.52L127.04 702.88c-3.744 0-6.944-3.168-6.944-6.944l0-777.44c0-3.776 3.2-6.976 6.944-6.976l769.888 0c3.808 0 6.944 3.2 6.944 6.976L903.872 695.936c0 3.776-3.136 6.944-6.944 6.944l-91.36 0L805.568 742.368l91.36 0c25.632 0 46.496-20.832 46.496-46.464l0-777.44C943.392-107.168 922.528-128 896.896-128zM706.592 634.048 317.344 634.048c-13.376 0-25.504 5.664-33.184 15.52S273.92 672.544 277.152 685.568l14.24 57.248c5.952 23.552 29.568 42.016 53.76 42.016l55.616 0c6.24 0 13.824 5.92 15.328 11.968l14.304 57.312C436.352 877.568 459.904 896 484.224 896l55.552 0c24.256 0 47.872-18.432 53.76-41.984L607.84 796.8c1.504-6.08 9.12-12 15.36-12l55.552 0c24.256 0 47.872-18.464 53.76-42.016l14.304-57.216c3.264-13.024 0.672-26.144-7.008-36.032C732.16 639.712 720.032 634.048 706.592 634.048zM345.152 745.28c-6.24 0-13.888-5.952-15.36-12.032L315.52 676l391.072-2.432c1.376 0 2.048 0.288 2.176 0.416l-14.624 59.264c-1.504 6.08-9.12 12.032-15.36 12.032l-55.552 0c-24.32 0-47.872 18.464-53.76 42.016l-14.304 57.184c-1.504 6.048-9.12 12.032-15.36 12.032l-55.552 0c-6.24 0-13.952-5.984-15.424-12.032L454.464 787.2c-5.824-23.488-29.376-41.952-53.696-41.952L345.152 745.248z"  horiz-adv-x="1024" />

    
    <glyph glyph-name="74yongdiguihuaxukezhengtongji" unicode="&#58958;" d="M187.072 160.192c-32.064 0-58.144 26.112-58.144 58.176L128.928 710.208c0 32.064 26.08 58.144 58.144 58.144l292.704 0.064 0-463.744c10.112 8.512 20.8 12.544 32 19.68L511.776 768.448l293.856 0.064c32.064 0 58.144-26.08 58.144-58.144l-0.224-292.352c2.592-1.888 5.408-3.36 7.968-5.344 8.448-6.464 16.384-13.408 24-20.608l0.256 318.272c0 49.728-40.448 90.144-101.984 90.144L175.264 800.352c-37.92 0-78.336-40.448-78.336-90.144l0-491.84c0-49.76 40.448-90.176 90.144-90.176l289.6-0.032c-4.16 10.432-7.552 21.152-10.56 32L187.072 160.192zM1023.904 320.32 1023.904 783.584c0 61.76-50.24 112-112 112L114.016 895.584c-61.76 0-114.016-50.24-114.016-112l0-641.952c0-61.76 50.24-112 112-112l400.544 0c-0.384 0.384-0.8 0.736-1.184 1.12-9.376 9.76-17.76 20.16-25.696 30.88L112 61.632c-44.128 0-80 35.872-80 80L32 783.584c0 44.096 37.92 80 82.016 80l797.888 0c44.128 0 80-35.904 80-80L991.392 320.32M514.944 146.528c-9.952-141.12 96.384-263.52 237.472-273.472 141.152-9.952 263.52 96.448 273.504 237.568 9.888 140.992-96.448 263.488-237.6 273.408l-17.952-255.456L514.944 146.528zM487.68 174.208l253.92-17.856-172.096 187.776C523.264 301.472 492.448 241.952 487.68 174.208zM775.104 434.624c-73.344 5.152-141.504-21.312-191.584-67.552l172.16-187.808 1.472-0.096L775.104 434.624z"  horiz-adv-x="1027" />

    
    <glyph glyph-name="shichangshangji" unicode="&#58976;" d="M120.475374 511.185704l0-111.541399 84.708264 0L205.183637 511.185704l54.898331 0 0-111.541399L64.452429 399.644305 64.452429 511.185704 120.475374 511.185704zM64.452429 539.816788l195.630562 0 0-28.631084L64.452429 511.185704 64.452429 539.816788 64.452429 539.816788zM120.475374 343.564056l0-70.02689 84.708264 0 0 70.02689 54.898331 0 0-70.02689L64.452429 273.537166l0 70.02689L120.475374 343.564056zM64.452429 399.644305l195.630562 0 0-56.08025L64.452429 343.564056 64.452429 399.644305 64.452429 399.644305zM119.913579 202.889129 119.913579 105.359862l84.70724 0 0 97.529267 55.462173 0 0-237.196237L64.452429-34.307108 64.452429 202.889129 119.913579 202.889129zM64.452429 273.538189l195.630562 0 0-70.64906L64.452429 202.889129 64.452429 273.538189 64.452429 273.538189zM358.178147 749.450273 358.178147 637.908874l70.082148 0L428.260296 749.450273l70.64906 0L498.909355 637.908874l97.478102 0L596.387457 749.450273l42.072211 0L638.459668 637.908874 302.661739 637.908874 302.661739 749.450273 358.178147 749.450273zM302.661739 806.091294l335.798952 0 0-56.642045L302.661739 749.449249 302.661739 806.091294 302.661739 806.091294zM428.261319 609.842655l0-98.656951 98.718349 0 0 98.656951 111.481024 0 0-98.656951L302.661739 511.185704l0 98.656951L428.261319 609.842655zM302.661739 637.908874l335.798952 0 0-28.066219L302.661739 609.842655 302.661739 637.908874 302.661739 637.908874zM358.798271 483.175767l0-111.597681 70.64599 0L429.444261 483.175767l69.466118 0 0-111.597681L596.949252 371.578086 596.949252 483.175767l41.510416 0 0-111.597681L302.661739 371.578086 302.661739 483.175767 358.798271 483.175767zM302.661739 511.185704l335.798952 0 0-28.009937L302.661739 483.175767 302.661739 511.185704 302.661739 511.185704zM428.824137 343.564056l0-112.099101 98.155531 0L526.979668 343.564056l111.481024 0 0-112.099101L302.661739 231.464955 302.661739 343.564056 428.824137 343.564056zM302.661739 371.578086l335.798952 0 0-28.01403L302.661739 343.564056 302.661739 371.578086 302.661739 371.578086zM359.358019 202.889129 359.358019 105.359862l68.286246 0 0 97.529267 70.647013 0L498.291279 105.359862l98.096179 0 0 97.529267 42.072211 0L638.459668 105.359862 302.661739 105.359862l0 97.529267L359.358019 202.889129zM302.661739 105.359862l335.798952 0 0-139.611711L302.661739-34.251849 302.661739 105.359862 302.661739 105.359862zM722.661396 399.644305l-41.003879 0 0 83.531462 27.451212 0 0.562818 84.651982 70.082148 0 0 98.095155 27.451212 0L807.204907 777.742642l28.571732 0L835.776639 667.1038l26.941606-0.562818 0-98.714256 70.086242 0 0-84.651982 28.687366 0 0-83.531462L722.661396 399.643282zM722.661396 399.644305l0-56.08025 98.829889 0 0 56.08025 140.001591 0 0-126.106116L681.657516 273.538189 681.657516 399.644305 722.661396 399.644305zM821.491285 273.538189l0-97.478102 111.313202 0 0 97.478102 28.687366 0 0-125.32124L681.657516 148.216949 681.657516 273.538189 821.491285 273.538189zM722.833311 148.216949l0-99.219769 98.657974 0 0 99.219769 140.001591 0 0-182.524057L681.657516-34.307108 681.657516 148.216949 722.833311 148.216949zM302.661739 231.464955l335.798952 0 0-28.576849L302.661739 202.888106 302.661739 231.464955 302.661739 231.464955zM302.661739 231.464955"  horiz-adv-x="1024" />

    
    <glyph glyph-name="icon104" unicode="&#58905;" d="M839.678506 172.69955l55.936987 35.218106-20.786419 50.697659-64.137763-14.890128c-9.157567 12.650111-20.295232 23.883967-33.142841 33.535791l14.562671 64.172555-50.537 21.149693-34.654264-55.57269c-15.845896 2.501984-31.692816 2.565429-47.174416 0.325411l-34.42709 55.640228-50.699706-20.684088 13.901615-63.977104c-12.650111-9.226129-23.980157-20.424168-33.665751-33.338293l-63.513546 15.022135-21.115923-50.503231 54.913681-35.44221c-2.469238-15.84999-2.435469-31.726585-0.132006-47.343261l-55.541991-34.294061 20.75572-50.765197 64.005756 13.970176c9.289574-12.58462 20.391423-23.815405 33.305547-33.403784l-15.022135-63.84305 50.503231-21.083178 35.675524 55.377238c15.746636-2.372024 31.625278-2.308579 47.01171 0.067538l35.214013-55.908334 50.635237 20.822235-14.890128 64.23907c12.485359 9.222035 23.684422 20.293185 33.17354 33.041534l64.566528-14.59337 21.083178 50.503231-56.001455 35.014468C841.918523 141.599228 841.918523 157.282419 839.678506 172.69955zM753.172293 120.252037c-16.273638-38.904055-61.010539-57.222259-99.949386-40.943504-38.872333 16.271592-57.257052 60.975746-40.981367 99.978039 16.273638 38.874379 61.041238 57.18849 99.946316 40.916898C751.097028 203.896062 769.443885 159.192931 753.172293 120.252037zM233.329674 531.643642l337.335958 0 0-67.467601-337.335958 0 0 67.467601ZM233.330698 362.975151l299.648614 0 0-67.467601-299.648614 0 0 67.467601ZM233.330698 194.307683l236.135068 0 0-67.467601-236.135068 0 0 67.467601ZM132.129808 93.106794 132.129808 531.643642c0 33.568537 33.80185 33.733289 67.467601 33.733289l101.20089 0c18.582217 0 33.733289 15.154141 33.733289 33.733289L334.531588 701.895187c0 29.910217-0.329505 59.82248 23.982204 66.015529l245.886153-0.132006c37.225833 0 67.466578-30.241768 67.466578-67.467601l0-303.602669 67.467601 0L739.334123 700.311109c0 74.387197-60.546981 134.934179-134.934179 134.934179l-269.868357 0c-35.842323 0-70.232574-33.338293-127.95216-92.239797-8.101515-8.233522-16.335037-16.666588-24.704658-24.970718-8.302083-8.367575-16.73515-16.603143-24.968671-24.704658-58.902528-57.718563-92.241844-92.110861-92.241844-127.95216l0-472.270137c0-74.385151 60.549028-134.934179 134.934179-134.934179l337.335958 0 0 67.467601L199.596386 25.641239C162.373623 25.640216 132.129808 55.884031 132.129808 93.106794z"  horiz-adv-x="1024" />

    
    <glyph glyph-name="jianzhuyongdichaxun" unicode="&#58909;" d="M107.095645-33.567257l46.561455 0 0 19.897166 12.644995 18.313088 18.410302 0L184.712397 352.310254l-77.794807 0 0 32.789801 15.601326 0 69.421092 25.495674 6.008854 12.706393 16.268522 0 5.947456-11.42112 98.512664-26.779923 49.39806 0 17.532305-12.123109 0-20.666692-30.857798 0 0-34.244942 3.198855 0 0-15.230889 22.626323-13.509688 3.202948 0 0-40.086997-65.676815 0 0 40.086997 3.203972 0 22.621207 13.509688 0 15.230889 3.201925 0 0 34.244942L227.45078 352.311277l0-5.758144 20.795629 0 14.633279-17.346063 0-40.348963-35.428907 0 0-284.213064 18.408255 0 12.649088-18.254759 0-19.956517 25.369807 0L283.877931 114.87047l29.847795 0 0-35.242665 58.876945 0 0 61.133336-32.041764 0 0 19.190061c10.867512 0 21.736047 0 32.601512 0l0 15.138792 35.600823 0 0-15.138792c19.627013 0 39.247886 0 58.873876 0l0 52.823066-40.445154 0 0 19.196201 9.292644 0 31.153534 0 36.158525 0c0-85.74078 0.154519-292.824185 0.154519-292.824185L107.095645-60.853717 107.095645-33.567257 107.095645-33.567257zM353.29493 298.2715l-4.712325 0-14.979156-8.945743 34.672684 0L353.29493 298.2715 353.29493 298.2715zM224.134245 404.260439l9.981329-19.160385 60.712757 0L224.134245 404.260439 224.134245 404.260439zM140.836097 385.100054l39.042201 0 8.208962 17.352203L140.836097 385.100054 140.836097 385.100054zM107.095645 346.55211l0-25.882484 47.921429 0 0 25.882484L107.095645 346.55211 107.095645 346.55211zM408.764266 7.610584c19.627013 0 39.247886 0 58.873876 0L467.638141 60.426487c-19.62599 0-39.246863 0-58.873876 0L408.764266 7.610584 408.764266 7.610584zM408.764266 79.626781c19.627013 0 39.247886 0 58.873876 0l0 61.133336c-19.62599 0-39.246863 0-58.873876 0L408.764266 79.626781 408.764266 79.626781zM313.726749 60.426487l0-52.815903 58.876945 0L372.603695 60.426487 313.726749 60.426487zM779.700483 141.922592c0-12.55699-10.17371-22.540366-22.567995-22.540366L563.139216 119.382227c-12.546757 0-22.570042 9.983375-22.570042 22.540366 0 12.467963 10.023284 22.651906 22.570042 22.651906l193.993273 0C769.526773 164.574498 779.700483 154.390555 779.700483 141.922592zM779.700483 354.914568c0-12.532431-10.17371-22.571065-22.567995-22.571065L561.615513 332.343503c-12.567223 0-22.525016 10.038634-22.525016 22.571065 0 12.485359 9.956769 22.61609 22.525016 22.61609l195.516975 0C769.526773 377.530658 779.700483 367.399927 779.700483 354.914568zM325.620637 531.797138c0 12.510942 10.070356 22.595624 22.593578 22.595624l132.902916 0c12.500709 0 22.64372-10.084683 22.64372-22.595624 0-12.533454-10.143011-22.641673-22.64372-22.641673L348.214215 509.155465C335.690994 509.155465 325.620637 519.263683 325.620637 531.797138zM325.620637 633.117754c0 12.486382 10.070356 22.642696 22.593578 22.642696l132.902916 0c12.500709 0 22.64372-10.156314 22.64372-22.642696 0-12.487406-10.143011-22.503527-22.64372-22.503527L348.214215 610.614228C335.690994 610.614228 325.620637 620.630349 325.620637 633.117754zM779.700483 249.148709c0-12.649088-10.17371-22.648836-22.567995-22.648836L561.615513 226.499873c-12.567223 0-22.525016 9.998725-22.525016 22.648836 0 12.462846 9.956769 22.598694 22.525016 22.598694l195.516975 0C769.526773 271.747403 779.700483 261.610532 779.700483 249.148709zM923.784042 519.883807l0-472.427726c0-68.063165-42.747593-108.310821-110.947881-108.310821 0 0-149.187811 0-292.505937 0 1.224898 10.79588-1.611707 38.438451 0.264013 56.390311l292.288996 0c37.150108 0 54.508451 14.893198 54.508451 51.919487L867.391684 488.584963 689.076486 488.584963c-68.085678 0-110.74936 42.788525-110.74936 110.947881L578.327126 771.732765 297.447994 771.732765c-36.962843 0-54.394864-17.384949-54.394864-54.423517l0-226.182392c-5.841032 0.522909-11.787464 0.931209-17.945721 0.931209-13.5936 0-26.343995-1.524726-38.425148-4.068665L186.682261 717.309248c0 68.097958 42.636053 110.790292 110.76471 110.790292l316.855508 0c7.645121 0 14.856359-2.905166 20.019962-8.227382l281.274128-280.012392C920.85534 534.60509 923.784042 527.465482 923.784042 519.883807zM830.428841 544.976298 634.560872 740.005157l0-140.473335c0-37.075407 17.539468-54.555523 54.514591-54.555523L830.428841 544.976298z"  horiz-adv-x="1024" />

    
    <glyph glyph-name="saoma" unicode="&#59024;" d="M543.808 670.656l0-28.8 48-10.624L591.808 670.656 543.808 670.656zM443.968 670.656l0-39.36 38.4 13.44L482.368 670.656 443.968 670.656zM487.168 770.048l0-95.552 56.64 0L543.808 722.304l48 0L591.808 770.048 487.168 770.048zM186.688 460.416l0-98.88 72 0L258.688 410.944l-30.72 0L227.968 460.416 186.688 460.416zM133.952 361.536l48.896 0 0-42.304L133.952 319.232 133.952 361.536 133.952 361.536zM445.888 105.216l42.24 0 0-43.2-42.24 0L445.888 105.216 445.888 105.216zM670.528 142.656l-24-30.656 42.24 0L670.528 142.656zM597.632 98.496l44.096 0 0-53.76 98.88 0 0-42.688L488.128 2.048l0 41.664 107.456 0L597.632 98.496zM798.272 303.872l-37.504-70.016 37.504-20.16L798.272 303.872zM798.272 202.176l103.68 0 0-103.68L798.272 202.176zM802.048 460.416l48 0 0-43.2-48 0L802.048 460.416 802.048 460.416zM802.048 357.696l54.656 0 0 59.52 45.184 0 0-158.4-41.344 0L860.544 319.232l-58.56 0L801.984 357.696zM735.808 685.056l80.704 0 0-82.56-80.704 0L735.808 685.056 735.808 685.056zM695.488 590.976l0 136.32 156.48 0 0-163.2-128.64 0 37.376-51.84 141.184 0L901.888 770.048l-261.184 0 0-145.472L695.488 590.976zM222.72 685.056l79.168 0 0-78.656L222.72 606.4 222.72 685.056 222.72 685.056zM337.408 576.576 337.408 722.304l-157.44 0 0-161.088 150.72 0L295.168 512.256l-161.28 0L133.888 770.048l262.016 0 0-163.712L337.408 576.576zM222.72 173.376l84.032 0 0-84.48L222.72 88.896 222.72 173.376 222.72 173.376zM340.288 182.976l0-132.736-157.44 0 0 163.456 134.4 0-28.8 49.92L133.952 263.616l0-261.568 255.296 0 0 136.768L340.288 182.976zM525.568 577.536c0 0 199.68 7.36 210.24-196.032 0 0 8.704-201.408-210.24-208.128 0 0-197.76 8.32-192.96 208.128L279.808 381.504c0 0-5.76-241.792 246.72-254.272 0 0 251.52-6.08 256.32 254.272 0 0 8.64 235.328-259.2 241.152L525.568 577.536 525.568 577.536zM525.568 577.536c0 0-176.64 1.6-192.96-196.032L279.808 381.504c0 0 8.64 230.592 243.84 241.152L525.568 577.536 525.568 577.536zM681.728 173.376l156.736-157.44c0 0 22.144-21.12 49.024 0 0 0 25.92 20.096 0 52.8l-155.52 151.168C732.032 219.968 697.344 182.976 681.728 173.376L681.728 173.376zM681.728 173.376"  horiz-adv-x="1024" />

    
    <glyph glyph-name="daiban" unicode="&#58930;" d="M521.955 183.571l252.47 0c5.212 13.614 11.36 26.609 18.59 39.03l-271.065 0 0-39.03zM873.3 456.789l-351.299 0 0-39.03 351.299 0 0 39.03zM404.881-70.176c-21.561 0-39.03 17.489-39.03 39.03l0 761.278c0 21.561 17.489 39.03 39.03 39.03l605.003 0c21.587 0 39.061-17.489 39.061-39.03l0-371.829c13.25-0.934 26.254-2.624 39.004-5.423l0 377.319c0 43.083-34.922 78.074-78.074 78.074l-605.003 0c-43.158 0-78.074-34.951-78.074-78.074l0-761.278c0-43.158 34.922-78.074 78.074-78.074l433.572 0c-12.221 11.916-23.274 24.985-32.985 39.03l-400.553 0zM873.3 310.045l0 29.657-351.299 0 0-39.03 338.807 0c4.034 3.236 8.198 6.412 12.521 9.394zM1029.203 281.186c-107.602 0-194.963-87.252-194.963-195.346 0-107.807 87.363-195.056 194.963-195.056 108.019 0 195.463 87.321 195.463 195.056 0 108.133-87.486 195.346-195.463 195.346zM1029.265-70.176c-86.067 0-155.968 69.83-155.968 156.028 0 86.522 69.83 156.301 155.968 156.301 86.421 0 156.301-69.766 156.301-156.301 0-86.103-69.874-156.028-156.301-156.028zM873.3 573.884l-351.299 0 0-39.03 351.299 0 0 39.03zM1048.923 183.571l-39.061 0 0-117.109 117.145 0 0 39.03-78.074 0 0 78.074z"  horiz-adv-x="1450" />

    
    <glyph glyph-name="dengjiyinhuan" unicode="&#58915;" d="M539.400558 122.831792c5.828752-4.879124 11.657504-9.797134 17.527189-14.677281 21.059642 9.360182 43.425022 15.587 64.123436 25.819039-20.85805 18.281365-39.299051 39.655162-62.574151 54.920844C552.645211 166.728558 546.340621 144.681426 539.400558 122.831792zM719.756229 365.483274c21.493523-19.907399 43.222407-39.576367 64.757886-59.44488 4.834098 5.076622 9.674337 10.152221 14.47262 15.267728-22.209838 19.986193-43.780109 40.726563-66.187445 60.515259C728.559733 376.268922 724.078675 370.91703 719.756229 365.483274zM855.209224 809.324942c-19.514449 16.933671-46.200228 21.175275-71.183226 21.611204-182.493358-0.158612-364.952946-0.038886-547.446303-0.038886-30.417777 0.118704-62.695924-9.795087-81.531921-35.054377-14.950504-16.776082-17.886369-39.655162-21.533432-60.912301l0-703.886285c4.045129-26.450419 11.738345-54.645574 33.945113-71.736834 20.936845-18.797112 50.243311-22.127973 77.169567-22.844288 174.406169 0.042979 348.852246 0.197498 523.294231-0.080841 29.783327 0 62.736856 1.749854 86.649476 21.892613 23.991414 18.161638 33.664727 48.976458 33.94409 78.083379 0.080841 231.388974 0 462.781018 0.038886 694.131107C888.478955 759.754966 879.12389 790.765237 855.209224 809.324942zM289.639145 660.774651c9.952676 1.427512 20.104897 0.792039 30.139437 0.871857 117.816313-0.317225 235.670487 0.23843 353.452008-0.277316 12.764722 0.991584 21.767769-15.782451 14.390755-26.054399-4.28356-8.088212-14.514575-8.882298-22.600741-8.961092-120.395044 0.038886-240.751203 0.079818-361.104291 0-7.495718 0.317225-16.73515 0.197498-21.771863 6.741541C274.212804 641.381975 278.455431 657.838785 289.639145 660.774651zM673.067884 552.672584c-122.971729-0.635473-245.942435 0.078795-368.916211-0.357134-8.128121 0.277316-16.556071 0.189312-23.434735 7.773034-6.385431 8.683776-2.074242 25.289989 12.307304 26.490328 12.264325 0.051165 242.479567-0.713244 367.636055 0 8.364505-0.87288 19.34765 2.022053 25.179472-5.868661C695.83133 570.952926 687.226349 551.166277 673.067884 552.672584zM442.829106 262.757658c-7.187703-7.187703-15.782451-7.187703-23.75503-7.462972-38.426171 0.038886-76.852342 0.038886-115.278513 0-7.810896 0.515746-16.491603-0.097214-22.525016 7.454786-6.358825 8.311293-4.004197 17.756409 1.943258 24.048719 3.330862 2.023076 9.292644 4.067642 20.819165 4.105504 32.841989 0.12382 93.744058-0.046049 115.081015 0 0 0 13.056364 0.604774 20.778232-3.172249C450.264449 280.603095 449.689351 270.294308 442.829106 262.757658zM472.808908 403.130709c-62.774719-0.197498-105.681948 0.079818-168.456666-0.197498-8.169053 0.23843-18.439978-1.031493-23.279193 7.296173-8.169053 11.023054 0.952698 28.512381 14.991436 27.323299 58.095139 0.950651 116.270097-0.078795 174.365236 0.474814 10.428513-0.038886 25.241894-3.653203 25.706475-17.142425C495.671615 408.349571 480.502124 403.289322 472.808908 403.130709zM304.352241 477.762477c-6.980995 0.833995-15.942087-1.189082-21.137413 4.799306-10.072403 8.6848-4.559852 28.154223 9.120728 29.185716 14.319124 1.146103 28.950356 0.871857 43.423999 1.071402 108.497063 0.038886 216.956264-0.12075 325.45128 0.078795 9.085936-0.594541 21.771863 0.594541 26.372647-9.31925 6.187933-8.445346 0.873903-21.13639-8.446369-24.50716-12.609179-2.25946-25.497721-1.071402-38.266535-1.308809C528.724405 477.841272 416.538323 477.882204 304.352241 477.762477zM806.867216 314.144002c-48.539506-51.870368-96.637967-104.096846-144.902204-156.202575-13.243629-13.368472-24.029276-31.090089-42.788525-37.201274-34.497699-13.081946-69.118194-25.892717-103.499236-39.175231 10.943236 35.647895 20.577664 71.696925 31.286564 107.425661 2.025123 8.008394 6.106068 15.343453 11.895935 21.214161 48.77589 51.629891 96.525404 104.255459 145.103796 156.044985 16.016789 17.171078 30.652114 38.664601 54.325279 45.483914 28.591175 8.963139 62.222133-10.94426 67.771523-40.488133C831.574944 350.269781 821.224202 329.053574 806.867216 314.144002z"  horiz-adv-x="1024" />

    
    <glyph glyph-name="gongwenguanli" unicode="&#58914;" d="M399.802 532.04l-183.57 0 0-99.498 571.068 0 0 99.498-183.535 0zM412.292 615.481l183.676 0 0-50.17-183.676 0 0 50.17zM517.108 372.614l-30.614 0 0 29.53-270.266 0 0-245.844 571.068 0 0 245.844-270.196 0zM504.13 876.83c-270.474 0-489.726-219.291-489.726-489.797s219.257-489.797 489.726-489.797c270.441 0 489.761 219.291 489.761 489.797s-219.221 489.797-489.761 489.797zM818.686 428.943l0-293.599c0-2.624-0.941-5.356-3.007-7.38-2.063-2.169-4.793-3.082-7.452-3.082l-608.19 0c-2.659 0-5.356 0.911-7.452 3.082-1.989 2.028-3.082 4.755-3.082 7.38l0 429.934 188.782 0 0 64.375-0.703 0 0 25.157 252.246 0 0-89.529 188.782 0 0-136.338 0.07 0z"  horiz-adv-x="1024" />

    
    <glyph glyph-name="xingzhengbangong" unicode="&#58890;" d="M524.286 862.323c-270.705 0-490.138-219.421-490.138-490.138s219.421-490.147 490.138-490.147c270.645 0 490.097 219.451 490.097 490.147 0 270.731-219.421 490.138-490.097 490.138zM524.233 654.146l322.681-198.889-322.681-198.971-322.656 198.971 322.656 198.889zM524.764 38.178l-328.051 194.496 20.571 37.774 307.383-183.443 305.373 183.349 21.664-37.591-326.965-194.594zM524.764 143.605l-328.051 194.496 20.571 37.774 307.383-183.443 305.373 183.349 21.664-37.628-326.965-194.567zM788.09 455.227l-263.802 162.634-263.847-162.634 263.847-162.703z"  horiz-adv-x="1024" />

    
    <glyph glyph-name="mianfeijianli" unicode="&#59283;" d="M513.554914 731.308213c57.935504 0 114.131387-11.343349 167.027108-33.716916 51.101865-21.614274 97.002264-52.5611 136.425136-91.980901 39.423895-39.420825 70.374814-85.319178 91.993181-136.420019 22.376637-52.896744 33.723056-109.09672 33.723056-167.040411 0-57.936527-11.346419-114.131387-33.723056-167.025061-21.618367-51.096748-52.569286-96.992031-91.993181-136.411833-39.422871-39.417755-85.324294-70.363558-136.425136-91.977831-52.894697-22.37152-109.090581-33.715893-167.027108-33.715893-57.936527 0-114.130364 11.343349-167.019944 33.715893-51.096748 21.61325-96.989985 52.55803-136.40774 91.976808-39.416731 39.418778-70.361511 85.313038-91.974761 136.411833-22.37152 52.892651-33.714869 109.087511-33.714869 167.026084 0 57.944713 11.343349 114.145713 33.715893 167.041434 21.61325 51.101865 52.557006 97.000218 91.974761 136.420019 39.416731 39.418778 85.310991 70.366627 136.406716 91.979878C399.42455 719.964864 455.618387 731.308213 513.554914 731.308213M513.554914 751.774337c-248.28683 0-449.583438-201.302749-449.583438-449.624371 0-248.295016 201.296609-449.595718 449.583438-449.595718 248.281713 0 449.635627 201.301725 449.635627 449.595718C963.190541 550.471588 761.836627 751.774337 513.554914 751.774337L513.554914 751.774337zM332.44609 406.307188c6.30152-91.501994 84.980463-163.824159 181.13543-163.824159 96.102778 0 174.780699 72.322166 181.081195 163.824159l16.721847 0 23.766286 0 0 18.989493-23.163559 0c-2.797719 111.301945-90.394776 200.540386-198.075241 200.540386-107.682511 0-195.277522-89.239464-198.131523-200.540386l-23.76424 0 0-18.989493 24.423249 0L332.44609 406.307188zM626.661971 309.695826c-30.169113-29.199019-70.330812-45.280276-113.080451-45.280276-42.774199 0-82.95227 16.081257-113.128547 45.281299-27.069519 26.192545-43.149752 60.136635-46.019103 96.609315l318.242088 0C669.805584 369.835532 653.72842 335.890418 626.661971 309.695826zM396.568503 556.19187l21.844517-60.58996 24.698518 3.676739-26.454512 73.213465c27.771507 19.428491 61.249993 30.733978 97.255021 30.733978 35.235502 0 67.944462-10.812253 95.388511-29.416983l-26.892487-74.53046 24.697495-3.676739 22.394033 62.182224c34.360576-31.585369 56.733119-77.127611 58.911738-128.09747L339.407642 429.686664C341.510536 479.834808 363.128903 524.674039 396.568503 556.19187zM608.36628 249.562261l0-29.858028-60.810994-100.160187-11.251252 108.392686L488.66299 227.936731l-9.877975-108.392686-60.043514 99.996458 0 30.021757c-93.247754-15.584953-168.987762-53.731762-206.473515-102.906741 29.088502-98.513688 152.906505-172.492586 301.313533-172.492586 148.406005 0 272.28029 73.981968 301.313533 172.492586C777.353019 195.830499 701.615057 233.976284 608.36628 249.562261zM697.72854 42.91376c-25.178449-14.594393-53.489238-25.994024-84.144422-33.882692-31.950689-8.220219-65.596997-12.387122-100.005668-12.387122-34.407648 0-68.049862 4.164856-99.995435 12.387122-30.649044 7.886621-58.954717 19.289322-84.129072 33.882692-44.827975 25.989931-77.033467 60.838623-91.860151 99.069343 16.298198 18.056238 39.237653 34.714639 67.048045 48.615231 26.776853 13.380752 58.059324 24.175609 91.617627 31.68463l0-2.742461 0-6.229888 3.207042-5.342682 60.043514-99.996458 35.414581-58.980299 6.245238 68.511373 8.015557 87.954191 6.846942 0 9.15859-88.234577 6.898107-66.460668 34.6778 57.113789 60.812017 100.162234 3.2623 5.376451 0 6.288217 0 2.579755 0.002047 0c33.558303-7.509021 64.841797-18.303878 91.626837-31.68463 27.820626-13.902638 50.774407-30.565133 67.096141-48.628534C774.760984 103.749314 742.560608 68.904715 697.72854 42.91376z"  horiz-adv-x="1024" />

    
    <glyph glyph-name="iconfont73" unicode="&#58891;" d="M497.6 734.64l0-701.28L218.656 204.144 207.12 211.2 193.6 211.2l-99.2 0c-15.872 0-28.8 12.928-28.8 28.8L65.6 528c0 15.872 12.928 28.8 28.8 28.8l99.2 0 13.52 0 11.536 7.056L497.6 734.64M507.184 796.8l-313.6-192-99.2 0c-42.4 0-76.8-34.384-76.8-76.8l0-288c0-42.416 34.384-76.8 76.8-76.8l99.2 0 313.6-192c21.2 0 38.4 17.184 38.4 38.384l0 748.8C545.6 779.616 528.384 796.8 507.184 796.8L507.184 796.8zM856.672-1.024c-6.144 0-12.288 2.336-16.976 7.024-9.376 9.376-9.376 24.56 0 33.936 189.696 189.712 189.696 498.4 0 688.128-9.376 9.376-9.376 24.56 0 33.936s24.56 9.376 33.936 0c208.416-208.416 208.416-547.584 0-756C868.96 1.312 862.816-1.024 856.672-1.024zM712.288 185.408c-6.144 0-12.288 2.336-16.976 7.024-9.376 9.376-9.376 24.56 0 33.936 86.912 86.928 86.912 228.336 0 315.248-9.376 9.376-9.376 24.56 0 33.936s24.56 9.376 33.936 0c51.2-51.2 79.408-119.232 79.408-191.568s-28.208-140.352-79.408-191.568C724.56 187.744 718.416 185.408 712.288 185.408z"  horiz-adv-x="1030" />

    
    <glyph glyph-name="chuchashenqing" unicode="&#58983;" d="M944.198489 795.42435l-33.887808 32.967856c0 0-62.194504 20.171412-105.302301-23.659863-72.707952-73.922616-170.334433-173.178201-170.334433-173.178201l-478.617705 69.236897-60.146868-55.121412 354.872357-205.64873L320.813656 312.466804l-217.980593-14.733563-41.909505-15.134699 223.408209-123.611296 119.208009-224.89712 16.492626 42.246173 13.808494 209.342866c0 0 366.633215 372.771005 510.509043 519.054673C979.479017 740.452341 944.198489 795.42435 944.198489 795.42435L944.198489 795.42435zM589.446883 300.42249l169.018461-323.345316 46.943149 53.140291-40.58944 431.024757L589.446883 300.42249 589.446883 300.42249zM589.446883 300.42249"  horiz-adv-x="1024" />

    
    <glyph glyph-name="zhishi" unicode="&#59130;" d="M873.767394-40.441693M955.484533-90.747425 955.484533 689.704676c0 0 1.131777 55.780421-59.586097 55.780421L123.059734 745.485097c-57.982576 0-59.58712-55.780421-59.58712-55.780421l0-780.511453c0 0.058328 0.059352-55.720046 59.58712-55.720046l194.954157 0 0 61.454654 0 28.109198 0 740.935086 263.414365 0 0-230.718709 78.616522 76.94137 79.242785-76.94137L739.287563 683.972115l126.769218 0c29.462009 0 29.200042-25.648147 29.200042-25.648147l0-717.747991c0 0 0.210801-25.648147-27.359115-25.648147l-419.923932 0c-16.98586 0-30.755468-13.769608-30.755468-30.755468 0-16.98586 13.769608-30.755468 30.755468-30.755468 0.603751 0 1.202385 0.022513 1.796926 0.056282L895.898437-146.526823C957.802322-146.526823 955.484533-90.747425 955.484533-90.747425zM268.305769-82.00225 156.310022-82.00225l0 0.055259c-26.434046 0-28.001751 25.544793-28.001751 25.544793L128.308271 658.426299c0 24.509207 28.001751 25.545816 28.001751 25.545816l111.995747 0L268.305769-82.00225z"  horiz-adv-x="1024" />

    
    <glyph glyph-name="tongzhi" unicode="&#59037;" d="M904.293487 10.250162l-75.138399 132.191607L829.155088 418.718299c0 57.605993-20.926644 118.339945-58.927286 171.013-38.656232 53.5865-92.928659 95.517313-152.813207 118.068608-0.348862 0.131455-0.701094 0.254484-1.055012 0.369086-1.373537 0.44324-6.476693 2.072946-13.974691 4.228473l0 9.201858c0 49.846771-40.553905 90.400675-90.400675 90.400675s-90.400675-40.553905-90.400675-90.400675l0-8.539527c-6.983975-1.995421-11.411316-3.414462-11.918598-3.579624-0.26291-0.084266-0.52582-0.175273-0.78536-0.269652-60.799679-22.015362-115.999032-63.900671-155.428827-117.938838-38.711848-53.052253-60.029487-114.333934-60.029487-172.55507L193.42127 142.438398l-80.40503-141.509752c-9.673749-16.865018-9.613077-37.862445 0.166847-54.806673 9.720938-16.834682 27.915675-27.292105 47.485634-27.292105L359.363136-81.170134c11.392777-73.990695 75.494002-130.829866 152.622766-130.829866 77.128764 0 141.231674 56.839172 152.622766 130.829866l198.660709 0c30.286923 0 54.926331 24.609073 54.926331 54.857233C918.195708-12.580896 913.286365 0.261258 904.293487 10.250162zM511.985902 764.810982c23.088912 0 42.006652-18.203164 43.156042-41.010627-4.843616 0.916815-9.747903 1.756106-14.625225 2.465626-2.089799 0.303358-4.177913 0.320211-6.215468 0.077525-0.840976 0.123029-1.697119 0.251113-2.56506 0.384253-6.028397 0.910074-12.860693 1.939806-20.481719 1.939806-7.614285 0-14.44321-1.029732-20.469922-1.93812-0.738171-0.111231-1.46623-0.220777-2.184177-0.326952-2.111709 0.284819-4.275662 0.28819-6.446357-0.016853-4.44588-0.625254-8.8985-1.353314-13.288764-2.150471C470.228678 746.837022 489.043613 764.810982 511.985902 764.810982zM511.985902-164.810982c-51.02144 0-93.805026 35.829947-104.586031 83.640849l209.173748 0C605.790928-128.981035 563.007342-164.810982 511.985902-164.810982zM863.269377-33.981116 160.670406-33.981116c-2.765614 0-5.302023 1.419041-6.61826 3.695911-1.403873 2.43192-1.442636 5.394716-0.05393 7.818209l83.532988 147.014014c2.019016 3.550974 3.080769 7.568781 3.080769 11.655687L240.611973 418.718299c0 102.123776 79.029807 207.786728 183.907399 245.969384 3.448169 1.088718 30.570057 9.510272 57.92789 14.008397 1.628021-0.178644 3.288063-0.190441 4.956532-0.018539 3.682429 0.374141 7.105318 0.891535 10.41529 1.390391 5.020574 0.75671 9.356908 1.410615 13.432017 1.410615 4.08185 0 8.419869-0.653905 13.443814-1.4123 3.306602-0.498855 6.72612-1.014564 10.403493-1.388705 1.510049-0.153364 3.011671-0.160106 4.488013-0.02865 28.392621-4.755979 57.364992-13.819641 61.736718-15.213402 103.027108-39.055653 180.644616-144.159079 180.644616-244.71719l0-282.513908c0-4.088591 1.061753-8.106399 3.082454-11.659058l79.663489-140.151383c1.112313-1.958344 2.501018-3.749842 4.122298-5.31382 1.400503-1.353314 2.17238-3.266154 2.17238-5.391345C871.006691-30.612157 867.609081-33.981116 863.269377-33.981116z"  horiz-adv-x="1024" />

    
    <glyph glyph-name="lianjilu" unicode="&#58906;" d="M443.030697 831.344444 443.030697 831.344444 443.030697 831.344444zM863.005794 78.916607c-12.922311 0.297782-24.164353-11.587919-23.944342-24.382317-0.704035-21.027919 0.038886-42.085514-0.163729-63.152319-194.014762 0.037862-388.027477-0.101307-582.034053 0.064468-29.27065-0.931209-58.957787 17.483186-66.577325 46.551222-12.000312 34.720779 13.43908 76.04393 49.704029 81.233116 41.153282 5.593392 587.360362 1.341554 612.979856 2.272763 9.137101 0.704035 19.642362 0.141216 26.681686 7.16519 6.468318 5.79703 8.080026 14.801101 7.869225 23.109324-0.093121 210.884988-0.093121 421.803745 0 632.728642-0.523933 11.989055 2.347464 25.588795-5.217838 35.995819-4.552689 6.699586-13.125949 8.240685-20.196994 10.846022L443.04707 831.348538l0.115634-562.383504L350.451162 371.634368c0 0-66.789149-68.445882-96.514147-101.856829 0 0 0.109494 365.021507-0.054235 538.040073 0.070608 7.892761 0 23.529903 0 23.529903-9.489118-1.11438-15.535835-2.307555-23.64042-3.676739-35.732829-6.233981-67.076698-31.614022-81.94636-64.496943-6.750751-14.635325-8.839319-30.773887-11.897981-46.441729l0-661.364843c3.464915-16.972557 5.53097-34.720779 14.112416-50.117444 15.377222-30.91408 45.750997-53.81772 79.731926-59.879786 21.998013-4.420683 44.526099-1.974981 66.765613-2.573615 187.584306 0 375.167588 0 562.728358 0 14.19735-1.512447 28.011984 10.277064 27.581172 24.77936 0.315178 28.959565 0.337691 57.958016 0 86.922698C887.489418 67.394179 876.037599 79.383234 863.005794 78.916607zM797.866215 505.396861c-5.538133-5.539156-13.571087-8.316409-24.110117-8.316409L522.725784 497.080451l-0.017396 0c-11.090593 0-19.250436 2.777253-24.50716 8.316409-5.270027 5.53711-7.899924 12.190647-7.899924 19.951401 0 7.751544 3.043313 14.544251 9.136078 20.361747 6.110161 5.819542 14.690584 8.724709 25.767873 8.724709l247.715825 0c11.091616 0 19.407002-2.90619 24.945135-8.724709 5.539156-5.817496 8.308223-12.610202 8.308223-20.361747C806.174438 517.587508 803.405371 510.933971 797.866215 505.396861zM499.437381 756.845707c6.094812 4.713348 13.290701 7.064906 21.614274 7.064906l168.747285 0c8.299013 0 15.362896-2.350534 21.181415-7.064906 5.820566-4.712325 8.738012-10.943236 8.738012-18.702967s-2.917446-14.409175-8.738012-19.946284c-5.819542-5.547343-12.882402-8.316409-21.181415-8.316409L521.052678 709.880045c-8.323573 0-15.519462 2.769067-21.614274 8.316409-6.092765 5.538133-9.150404 12.186554-9.150404 19.946284S493.344616 752.133382 499.437381 756.845707zM497.36621 653.355681c4.701069 5.54632 12.600993 8.314363 23.679305 8.314363l254.356059 0c11.078313 0 19.132756-2.769067 24.109094-8.314363 4.998851-5.539156 7.480368-12.464893 7.480368-20.781302 0-7.755638-2.347464-14.406105-7.063883-19.951401-4.717442-5.53711-12.603039-8.3072-23.686469-8.3072L521.888719 604.315778c-11.092639 0-19.117406 2.77009-24.116257 8.3072-4.989641 5.545296-7.484462 12.195763-7.484462 19.951401C490.286977 640.889765 492.648768 647.816524 497.36621 653.355681z"  horiz-adv-x="1024" />

    
    <glyph glyph-name="5" unicode="&#58892;" d="M731.554637-71.709763c-1.103971 48.275961-2.758392 126.518745-2.758392 126.518745s-149.045276-3.328283-67.346316 176.461405c71.441956 88.108949 164.872269 104.773895 235.62565 67.760689L897.075579 526.057212 582.071456 526.057212c-29.265971 0-52.993671 23.852524-52.993671 53.271966L529.077785 896 172.828738 896c-29.264948 0-52.992648-23.852524-52.992648-53.271966l0-917.455045c0-29.419443 23.7277-53.270943 52.992648-53.270943l648.143448 0c-20.476153 0.024555-34.767409 0.241462-34.767409 0.241462S740.939924-119.98777 731.554637-71.709763zM844.080884-127.997954c0.215883 0 0.405164 0.061389 0.620024 0.061389-7.746213-0.045018-15.154788-0.069574-21.917761-0.061389L844.080884-127.997954zM841.632504-25.964034l-39.748067 0c-9.753618 0-17.663534-7.950841-17.663534-17.757663l0-22.195033c0-9.805799 7.908892-17.757663 17.663534-17.757663l39.748067 0c9.753618 0 17.663534 7.951864 17.663534 17.757663l0 22.195033C859.295015-33.915898 851.386122-25.964034 841.632504-25.964034zM886.775602 244.718574c-86.848437 58.445998-161.179747-19.976859-167.071002-26.636495-5.892278-6.658612-32.379394-44.340954-30.912208-75.440397 1.466163-31.101489 51.5183-56.938909 80.222565 0s84.640495 34.74183 72.86617-16.308893c0 0-5.891255-17.748455-24.289405-25.890624-18.397127-14.064118-30.922439-18.501488-34.595521-81.389971l76.188314 0c0 0 4.044483 31.81155 34.955667 46.613354C925.054436 80.464283 973.623016 186.269506 886.775602 244.718574zM620.807635 580.803527l258.35374 0L583.287973 896l0-277.481391C583.287973 597.693565 600.090021 580.803527 620.807635 580.803527z"  horiz-adv-x="1024" />

    
    <glyph glyph-name="tuichu" unicode="&#58918;" d="M512-128C229.2352-128 0 101.2352 0 384S229.2352 896 512 896c282.7648 0 512-229.2352 512-512S794.7648-128 512-128zM524.8 640l-25.6 0 0-204.8 25.6 0L524.8 640zM576 631.6032l0-26.4064C672.0768 577.4464 742.4 489.0112 742.4 384c0-127.2448-103.1552-230.4-230.4-230.4s-230.4 103.1552-230.4 230.4c0 105.0112 70.3232 193.4464 166.4 221.1968l0 26.4064C337.6512 603.1488 256 503.2448 256 384c0-141.3888 114.6112-256 256-256s256 114.6112 256 256C768 503.2448 686.3488 603.1488 576 631.6032z"  horiz-adv-x="1024" />

    
    <glyph glyph-name="555gongsizhidu" unicode="&#59810;" d="M421.809781 531.821021l348.57977-27.728334-2.434445-30.604018-348.57977 27.728334 2.434445 30.604018ZM421.809121 387.534927l348.57977-27.728334-2.434445-30.604018-348.57977 27.728334 2.434445 30.604018ZM767.888681 184.977173l-183.115064 14.56618 2.434527 30.605039 183.115064-14.56618-2.434527-30.605039ZM767.890664 40.709176l-147.911262 11.765837 2.434527 30.605039 147.911262-11.765837-2.434527-30.605039ZM950.816211 717.7228c-4.650927-0.158612-466.188628-15.83464-555.989887-15.83464-30.980595 0-55.305607-9.581216-72.29863-28.476565-27.167756-30.211069-24.838711-73.558319-24.252357-80.646761l0-58.757219c-0.194428-2.801812-0.283456-4.495384-0.295735-4.737908l-0.016373-160.121837c-64.264653-0.465604-124.612089-25.691125-170.101119-71.181179-45.914726-45.915749-71.201645-106.966197-71.201645-171.905208 0-64.941058 25.286919-125.990482 71.202669-171.903162 45.914726-45.911656 106.966197-71.196529 171.908278-71.196529 58.818617 0 114.448612 20.748556 158.53162 58.782801l425.561325-53.818743L883.864356 25.643422l82.82538 2.314719L966.689736 718.263106 950.816211 717.7228zM87.35965 126.061482c0 117.122511 95.287203 212.408691 212.410738 212.408691 3.536546 0 7.051603-0.091074 10.546194-0.26299l1.895163-0.11154c0.110517-0.00614 0.221034-0.014326 0.332575-0.021489 1.666966-0.099261 3.329838-0.216941 4.985548-0.354064 0.144286-0.01228 0.287549-0.026606 0.431835-0.038886 1.564635-0.13303 3.123131-0.280386 4.677533-0.447185 0.294712-0.031722 0.588401-0.068562 0.88209-0.101307 1.393743-0.154519 2.784416-0.319272 4.169973-0.50142 0.533143-0.070608 1.063215-0.149403 1.595334-0.224104 1.13894-0.158612 2.27788-0.318248 3.411703-0.49528 0.89437-0.140193 1.783623-0.293689 2.673899-0.444115 0.763386-0.128937 1.528819-0.252757 2.289136-0.388856 1.476631-0.267083 2.947122-0.550539 4.412496-0.847298 0.168846-0.033769 0.338714-0.064468 0.50756-0.099261 36.4604-7.491625 69.538773-24.360827 96.604198-47.960315-124.551714-1.99954-299.904441-79.675644-315.921229-204.130144-4.54041-35.265178-0.025583-64.463174 10.510378-88.343047C104.743576 30.030335 87.35965 76.050462 87.35965 126.061482zM299.770388-86.339022c-49.084928 0-94.328365 16.741289-130.336464 44.804439-20.897959 23.438828-35.606962 55.777351-27.030633 98.647741 27.40107 137.016607 217.000266 111.950721 217.530338 115.543549 10.711969 71.90261 59.518558 99.233072 84.616166 108.666932 21.654182-20.207227 39.10053-44.868907 50.839899-72.52171 0.059352-0.141216 0.11768-0.283456 0.178055-0.424672 0.585331-1.387603 1.156336-2.78237 1.711991-4.184299 0.115634-0.290619 0.228197-0.583285 0.342808-0.874927 0.49221-1.257643 0.974188-2.520403 1.442862-3.78828 0.152473-0.413416 0.301875-0.826831 0.452301-1.24127 0.418532-1.154289 0.827855-2.312672 1.226944-3.476171 0.176009-0.5137 0.349971-1.029446 0.521886-1.545192 0.35918-1.073448 0.709151-2.15099 1.050935-3.231601 0.188288-0.594541 0.373507-1.190105 0.556679-1.786693 0.310062-1.01205 0.61296-2.028193 0.908696-3.047406 0.191358-0.660032 0.38067-1.321088 0.565888-1.983167 0.270153-0.966001 0.531096-1.935072 0.787946-2.907213 0.188288-0.712221 0.375553-1.425466 0.556679-2.140757 0.236384-0.932232 0.462534-1.867534 0.685615-2.803859 0.180102-0.7552 0.360204-1.5104 0.532119-2.26867 0.205685-0.907673 0.402159-1.820462 0.596588-2.732228 0.167822-0.786922 0.335644-1.573845 0.494257-2.364861 0.180102-0.896416 0.348947-1.796926 0.517793-2.697435 0.151449-0.808412 0.304945-1.616824 0.447185-2.429329 0.156566-0.89437 0.301875-1.792832 0.447185-2.690272 0.13303-0.821715 0.26913-1.642406 0.39295-2.467191 0.1361-0.904603 0.257873-1.813299 0.381693-2.720971 0.112564-0.821715 0.229221-1.641383 0.331551-2.466168 0.115634-0.927115 0.215918-1.858324 0.320295-2.788509 0.090051-0.811482 0.186242-1.620917 0.268106-2.435469 0.096191-0.964978 0.174985-1.935072 0.258896-2.904143 0.067538-0.783853 0.14224-1.566682 0.201591-2.352581 0.076748-1.031493 0.135076-2.067079 0.197498-3.102664 0.044002-0.730641 0.097214-1.459235 0.134053-2.191922 0.058328-1.177825 0.096191-2.360767 0.135076-3.543709 0.019443-0.594541 0.050142-1.187035 0.065492-1.782599 0.044002-1.783623 0.068562-3.572362 0.068562-5.366218 0-38.85596-10.756995-76.710103-30.457686-109.48967C444.48942-45.048617 376.863207-86.339022 299.770388-86.339022zM853.163123-77.24797 485.552651-30.758146c0.607844 0.718361 1.205455 1.445932 1.805112 2.171456 0.243547 0.294712 0.49221 0.587378 0.734734 0.883113 1.037632 1.267876 2.060939 2.547009 3.071965 3.834328 0.517793 0.657986 1.026376 1.322112 1.537006 1.985214 0.460488 0.598634 0.918929 1.199315 1.373277 1.802042 21.279652 28.170596 35.990702 60.359716 43.35032 94.672196 0.063445 0.292666 0.122797 0.585331 0.185218 0.877997 0.341784 1.622964 0.668219 3.25002 0.977257 4.882194 0.11461 0.605797 0.227174 1.211595 0.337691 1.817392 0.2415 1.332345 0.471744 2.667759 0.691755 4.006244 0.134053 0.813528 0.26606 1.627057 0.391926 2.442632 0.177032 1.152243 0.342808 2.307555 0.503467 3.464915 0.132006 0.946558 0.264013 1.893116 0.384763 2.842745 0.134053 1.055029 0.254803 2.112104 0.375553 3.169179 0.116657 1.020236 0.234337 2.040473 0.337691 3.062755 0.104377 1.030469 0.192382 2.064009 0.283456 3.097548 0.091074 1.032516 0.187265 2.065032 0.265036 3.100618 0.081864 1.088798 0.145309 2.181689 0.213871 3.273557 0.060375 0.975211 0.12996 1.949398 0.179079 2.926656 0.064468 1.281179 0.105401 2.565429 0.150426 3.849678 0.027629 0.794086 0.067538 1.585101 0.086981 2.38021 0.052189 2.088568 0.080841 4.181229 0.080841 6.277984 0 0.001023 0 0.001023 0 0.002047 0 0.001023 0 0.001023 0 0.002047 0 1.969864-0.024559 3.934612-0.071631 5.894244-0.025583 1.088798-0.074701 2.173502-0.11461 3.260254-0.031722 0.840134-0.052189 1.682315-0.092098 2.520403-0.073678 1.577938-0.172939 3.15076-0.277316 4.722558-0.021489 0.315178-0.035816 0.63138-0.057305 0.946558-4.091178 58.403155-28.78765 112.752993-70.590731 154.556075-38.959314 38.959314-88.812745 63.057151-142.68777 69.468165L328.978616 533.30972c2.553149 38.425148 11.207249 83.372849 21.665439 93.080955 3.76065 3.491521 10.754948 4.733814 13.713326 4.984524l488.809835-36.378535L853.167217-77.24797zM935.989527 57.812075l-52.126194-1.457188L883.863333 623.496765l-518.245238 38.568411-0.769526 0.057305-0.771573-0.020466c-0.856507-0.022513-4.471848-0.173962-9.350972-1.163499 10.301623 6.808056 23.731494 10.250458 40.101323 10.250458 80.758302 0 458.731796 12.547781 541.16218 15.316847L935.989527 57.812075zM154.387229 32.855684c-0.086981-42.129516 18.491143-64.920592 18.491143-64.920592s-17.313318 30.583552-11.076266 62.58643c19.10922 97.754395 137.926326 54.255695 137.926326 54.255695 10.778484 53.147454 53.466726 72.951499 53.466726 72.951499C253.172093 158.173854 154.6011 129.485465 154.387229 32.855684z"  horiz-adv-x="1024" />

    
    <glyph glyph-name="crmtubiao53" unicode="&#58968;" d="M513.8176 842.8032c-254.6688 0-461.8752-207.2064-461.8752-461.8752s207.1808-461.8496 461.8752-461.8496c254.6688 0 461.8752 207.1808 461.8752 461.8496S768.4864 842.8032 513.8176 842.8032zM513.8176-42.5216c-233.4976 0-423.4752 189.952-423.4752 423.4496S280.32 804.4032 513.8176 804.4032c233.4976 0 423.4752-189.9776 423.4752-423.4752S747.2896-42.5216 513.8176-42.5216zM698.6496 574.208l-12.544 12.5696-13.7472-13.7984c-21.3248 19.2-45.4656 34.6112-71.936 45.8752-32.1536 13.696-66.3296 20.6336-101.5808 20.6336l-17.7408 0 0-19.456c-27.7248-1.6896-54.6816-8.0128-80.2304-18.8416-29.2096-12.3136-55.4752-30.0544-78.08-52.6336-22.5536-22.5792-40.2688-48.8448-52.6336-78.08-12.8-30.3104-19.3024-62.464-19.3024-95.616s6.5024-65.3312 19.3024-95.616c12.3648-29.2608 30.08-55.5264 52.6336-78.0544 22.528-22.5536 48.7936-40.2432 78.08-52.6592 30.2848-12.8256 62.4384-19.3024 95.616-19.3024 33.0752 0 65.1776 6.4512 95.4112 19.2 29.184 12.288 55.3984 29.952 77.9776 52.4032 22.5792 22.528 40.2944 48.6912 52.6848 77.7728 10.6496 25.0112 17.024 51.3536 18.944 78.464l39.1424 0 0.1024 17.6384c0.1792 36.6592-6.656 72.3456-20.2752 106.1376C746.3936 515.8912 725.6064 547.3024 698.6496 574.208zM744.704 392.576l-202.0608 0 143.0528 143.5392C720.4608 495.9488 741.1456 445.5936 744.704 392.576zM516.608 421.248l0 182.0416c47.4624-3.7376 92.4416-22.4768 128.4608-53.5808L516.608 421.248zM705.792 356.224c-9.472-108.1344-99.6864-191.488-209.3056-191.488-115.8656 0-210.1504 94.2848-210.1504 210.1504 0 110.1312 83.7632 200.3712 192.4096 209.408l0-228.0448L705.792 356.2496z"  horiz-adv-x="1024" />

    
    <glyph glyph-name="renwu01" unicode="&#59493;" d="M773.8368 509.024l-11.6736 8.192-8.2176 11.7248-5.0944-2.3808-11.392-5.3248-537.6-251.4688-0.3328-27.008 192.1536-96.0768 96.0256-192.1536 27.0336 0.4096 251.4176 537.6 5.3248 11.392L773.8368 509.024zM670.7968 450.9376 401.3312 181.4464l-148.2496 74.1376L670.7968 450.9376zM695.9104 425.9264 500.48 8.1856l-74.112 148.224L695.9104 425.9264zM513.8432 762.9504c-255.6928 0-463.7184-208.0256-463.7184-463.7184s208.0256-463.6928 463.7184-463.6928c255.6928 0 463.6928 208 463.6928 463.6928S769.536 762.9504 513.8432 762.9504zM513.8432-129.0816c-236.16 0-428.288 192.1536-428.288 428.3136s192.128 428.288 428.288 428.288c236.16 0 428.288-192.128 428.288-428.288S750.0032-129.0816 513.8432-129.0816z"  horiz-adv-x="1024" />

    
    <glyph glyph-name="xiangxia" unicode="&#59019;" d="M862.261339 550.69965c0-39.708374 0.200568-76.340689-0.310062-112.961748-0.051165-3.659343-3.586688-8.606005-6.919597-10.689457C744.145198 357.778802 633.021308 288.889829 522.158361 219.583346c-10.280134-6.426363-17.532305-2.13564-25.708522 2.954285-73.469292 45.734624-146.983609 91.399663-220.479507 137.090285-34.744315 21.599947-69.359694 43.411719-104.318904 64.658625-7.315616 4.446265-10.073426 9.360182-9.948583 17.978467 0.50756 34.788318 0.210801 69.589938 0.210801 107.209744 6.197142-3.653203 10.832719-6.258541 15.346523-9.064446 107.431801-66.792219 214.920908-133.494387 322.143954-200.621227 8.773827-5.492084 14.845103-5.765307 23.783683-0.164752 106.797351 66.919109 213.888392 133.37159 320.906777 199.938682C849.198835 542.740374 854.348112 545.853271 862.261339 550.69965z"  horiz-adv-x="1024" />

    
    <glyph glyph-name="zengjianjianpan" unicode="&#59156;" d="M830.577778-86.844444l-295.822222 0-91.022222 0-68.266667 0c-12.583822 0-22.755556 10.171733-22.755556 22.755556s10.171733 22.755556 22.755556 22.755556l68.266667 0 91.022222 0 273.066667 0c25.122133 0 45.511111 20.388978 45.511111 45.511111l0 341.333333 0 22.755556 0 45.511111c0 12.583822 10.171733 22.755556 22.755556 22.755556s22.755556-10.171733 22.755556-22.755556l0-45.511111 0-22.755556 0-364.088889C898.844444-56.283733 868.283733-86.844444 830.577778-86.844444zM694.044444 49.688889l-500.622222 0c-37.705956 0-68.266667 30.560711-68.266667 68.266667l0 500.622222c0 37.6832 30.560711 68.266667 68.266667 68.266667l500.622222 0c37.705956 0 68.266667-30.583467 68.266667-68.266667l0-500.622222C762.311111 80.2496 731.7504 49.688889 694.044444 49.688889zM716.8 595.822222c0 25.122133-20.388978 45.511111-45.511111 45.511111l-455.111111 0c-25.122133 0-45.511111-20.388978-45.511111-45.511111l0-455.111111c0-25.122133 20.388978-45.511111 45.511111-45.511111l455.111111 0c25.122133 0 45.511111 20.388978 45.511111 45.511111L716.8 595.822222zM580.266667 345.511111l-113.777778 0 0-113.777778c0-12.583822-10.171733-22.755556-22.755556-22.755556s-22.755556 10.171733-22.755556 22.755556l0 113.777778-113.777778 0c-12.583822 0-22.755556 10.171733-22.755556 22.755556 0 12.561067 10.171733 22.755556 22.755556 22.755556l113.777778 0 0 113.777778c0 12.561067 10.171733 22.755556 22.755556 22.755556s22.755556-10.194489 22.755556-22.755556l0-113.777778 113.777778 0c12.583822 0 22.755556-10.194489 22.755556-22.755556C603.022222 355.682844 592.850489 345.511111 580.266667 345.511111z"  horiz-adv-x="1024" />

    
    <glyph glyph-name="weifenxiaopcjiemianzhuanhuan" unicode="&#58975;" d="M256 313.6l0-326.4 153.6 0L409.6 313.6l-76.8 64L256 313.6zM0-12.8l153.6 0 0 249.6L0 115.2 0-12.8zM768 390.4l0-403.2 153.6 0L921.6 518.4 768 390.4zM512 230.4l0-243.2 153.6 0 0 320-121.6-102.4L512 230.4zM1024 780.8l-294.4 0 121.6-115.2-313.6-256L332.8 582.4 0 320l0-115.2 332.8 262.4 211.2-172.8 377.6 307.2L1024 505.6 1024 780.8z"  horiz-adv-x="1024" />

    
    <glyph glyph-name="weifenxiaopcjiemianzhuanhuan1" unicode="&#58974;" d="M569.6 780.8 569.6 896 454.4 896l0-115.2L0 780.8l0-115.2 57.6 0 0-576 358.4 0L192-83.2 230.4-128l275.2 224 0 0 275.2-224 38.4 44.8-217.6 179.2 364.8 0 0 576L1024 672 1024 780.8 569.6 780.8zM908.8 153.6 115.2 153.6l0 512 793.6 0L908.8 153.6zM281.6 268.8 281.6 441.6l172.8 0c0 83.2-70.4 147.2-153.6 147.2-83.2 0-153.6-70.4-153.6-153.6C153.6 352 198.4 268.8 281.6 268.8zM339.2 211.2C428.8 211.2 512 300.8 512 384L339.2 384 339.2 211.2zM793.6 556.8 627.2 556.8l0-57.6 172.8 0L800 556.8zM793.6 441.6 627.2 441.6 627.2 384l172.8 0L800 441.6zM793.6 326.4 627.2 326.4l0-57.6 172.8 0L800 326.4z"  horiz-adv-x="1024" />

    
    <glyph glyph-name="bangzhu" unicode="&#58893;" d="M527.449877 848.24537c-246.831688 0-446.928982-200.097294-446.928982-446.928982s200.097294-446.928982 446.928982-446.928982 446.928982 200.097294 446.928982 446.928982S774.282588 848.24537 527.449877 848.24537zM513.088798 131.241322c-28.621874 0-51.815109 23.650653-51.815109 52.825113 0 29.164227 23.192212 52.79339 51.815109 52.79339s51.816133-23.629163 51.815109-52.79339C564.903907 154.891975 541.711695 131.241322 513.088798 131.241322zM657.812947 463.136362c-7.150864-13.615089-15.648398-25.371854-25.483394-35.279504-9.834996-9.908674-27.504424-26.566052-52.976562-50.004881-7.04751-6.601348-12.695137-12.390191-16.933671-17.407462-4.248767-4.996804-7.40976-9.56996-9.471722-13.731746-2.093684-4.140297-3.689019-8.302083-4.818749-12.453636-1.139963-4.161786-2.849908-11.460006-5.129834-21.875217-3.937682-22.160719-16.269545-33.241079-36.985356-33.241079-10.768251 0-19.835767 3.63376-27.183106 10.858302-7.357572 7.257288-11.026124 18.010189-11.026124 32.280194 0 17.872043 2.684132 33.379225 8.072863 46.466288 5.38873 13.108552 12.529361 24.601304 21.441335 34.508955 8.911974 9.886161 20.923542 21.664416 36.042891 35.311227 13.253862 11.904121 22.840194 20.904099 28.736485 26.967188 5.91778 6.083555 10.880815 12.833283 14.922874 20.291139 4.041036 7.457856 6.062066 15.548114 6.062066 24.284079 0 17.038048-6.166443 31.403221-18.488073 43.106774-12.331863 11.725042-28.228925 17.587564-47.701418 17.587564-22.788006 0-39.566134-5.904477-50.333362-17.724687-10.777461-11.830443-19.886933-29.237905-27.347858-52.243875-7.04751-24.062022-20.405749-36.093033-40.08495-36.093033-11.596106 0-21.399379 4.214998-29.358655 12.622482-7.979742 8.408507-11.95938 17.524119-11.95938 27.304879 0 20.227694 6.310729 40.729633 18.943444 61.496609 12.632715 20.75572 31.078833 37.962613 55.317886 51.588959 24.218588 13.636578 52.509934 20.439518 84.821851 20.439518 30.043247 0 56.551994-5.693676 79.547731-17.080004 22.995737-11.397584 40.757263-26.89351 53.286624-46.476521 12.528338-19.6045 18.798135-40.909735 18.801205-63.885006C668.527986 492.648512 664.952554 476.77294 657.812947 463.136362z"  horiz-adv-x="1024" />

    
    <glyph glyph-name="shoucang" unicode="&#59025;" d="M508.002454 836.649264 156.118152 626.132666 510.279311 414.16502 862.239338 624.756319 508.002454 836.649264 508.002454 836.649264ZM121.974517 143.76045 475.022319-67.485765 475.022319 356.410642 121.974517 567.688579 121.974517 143.76045 121.974517 143.76045ZM540.842397 353.699903 540.842397-67.485765 894.030391 143.76045 894.030391 564.902116 540.842397 353.699903 540.842397 353.699903ZM540.842397 353.699903"  horiz-adv-x="1024" />

    
    <glyph glyph-name="ren1" unicode="&#59014;" d="M910.648372-63.013917l-0.225127 5.545296C903.077953 124.264421 727.240179 266.622686 510.113023 266.622686c-217.105666 0-392.927067-142.358265-400.273383-324.092329l-0.224104-5.545296L44.418652-63.01494l0.215918 5.986341c1.423419 39.493479 9.923 78.304414 25.26236 115.353215 16.369829 39.536458 40.222073 76.475765 70.8967 109.791545 30.4188 33.038464 66.754357 61.669548 107.999736 85.09712 41.923832 23.813359 87.855954 41.634236 136.521327 52.967352l24.690332 5.748934-23.041786 10.570753c-46.179762 21.184485-85.303828 54.584176-113.142873 96.587825-28.633131 43.199894-43.766806 93.450369-43.766806 145.31869 0 71.336722 28.049846 138.40728 78.982866 188.857299 50.953486 50.468438 118.705566 78.262458 190.774975 78.262458 72.073502 0 139.825582-27.79402 190.777021-78.262458 50.929949-50.446949 78.978772-117.517507 78.978772-188.857299 0-50.689473-14.552437-99.955526-42.085514-142.470829-26.705222-41.23617-64.422242-74.562183-109.076254-96.373954l-22.905686-11.18883 24.978904-5.092995c99.841939-20.35356 190.225459-68.796876 254.500345-136.406716 32.04688-33.708729 56.990992-71.272253 74.142627-111.645776 16.114003-37.932937 25.024953-77.721129 26.484188-118.256334l0.214894-5.986341L910.648372-63.01494zM499.800144 787.609361c-124.186394 0-225.219461-100.123348-225.219461-223.191268 0-123.089409 101.034091-223.229131 225.219461-223.229131 124.19151 0 225.228671 100.140745 225.228671 223.229131C725.029838 687.487036 623.991654 787.609361 499.800144 787.609361z"  horiz-adv-x="1024" />

    
    <glyph glyph-name="tongxunlu" unicode="&#58894;" d="M896-128 256-128c-35.36 0-64 28.64-64 64l0 64c35.392 0 64 28.64 64 64l0 64c0 35.328-28.608 64-64 64L192 576c35.392 0 64 28.64 64 64L256 704c0 35.328-28.608 64-64 64L192 832c0 35.328 28.608 64 64 64l640 0c35.36 0 64-28.672 64-64l0-896C960-99.36 931.36-128 896-128zM768 224c-9.888 58.688-49.376 108-99.552 135.808C690.368 382.752 704 413.76 704 448l0 64c0 70.688-57.312 128-128 128s-128-57.312-128-128l0-64c0-34.24 13.632-65.248 35.552-88.192C433.376 332 393.888 282.688 384 224l0 0c0-52.992 43.008-96 96-96l192 0C724.992 128 768 171.008 768 224L768 224zM160 640 96 640C78.304 640 64 654.304 64 672c0 17.696 14.304 32 32 32l64 0c17.696 0 32-14.304 32-32C192 654.304 177.696 640 160 640zM64 832c0 35.328 28.64 64 64 64l0-128L64 768 64 832zM128 192 64 192 64 576l64 0L128 192zM96 128l64 0c17.696 0 32-14.304 32-32 0-17.696-14.304-32-32-32L96 64c-17.696 0-32 14.304-32 32C64 113.696 78.304 128 96 128zM128-128c-35.36 0-64 28.64-64 64l0 64 64 0L128-128z"  horiz-adv-x="1024" />

    
    <glyph glyph-name="jinlingyingcaiwangtubiao35" unicode="&#59206;" d="M837.837 613.837c-87.014 87.014-202.726 134.963-325.811 134.963s-238.822-47.949-325.862-134.989c-179.661-179.661-179.661-471.987 0-651.648 87.014-87.014 202.726-134.963 325.837-134.963s238.797 47.923 325.811 134.938c179.661 179.712 179.686 472.038 0.026 651.699zM810.65-10.675c-79.77-79.77-185.83-123.725-298.65-123.725s-218.906 43.93-298.675 123.699c-164.685 164.685-164.685 432.64 0 597.325 79.795 79.821 185.882 123.776 298.701 123.776 112.819 0 218.88-43.93 298.65-123.699 164.685-164.71 164.685-432.691-0.026-597.376zM512.026 40.678c-10.598 0-19.2-8.602-19.2-19.2v-18.227c0-10.598 8.602-19.2 19.2-19.2s19.2 8.602 19.2 19.2v18.227c-0 10.598-8.602 19.2-19.2 19.2zM512 545.69c-104.218 0-189.005-77.107-189.005-171.904 0-10.598 8.602-19.2 19.2-19.2s19.2 8.602 19.2 19.2c0 73.6 67.558 133.504 150.605 133.504s150.605-59.878 150.63-132.352c-0.051-0.691-4.71-69.76-52.173-99.738l-5.427-3.456c-11.827-7.552-33.894-21.606-45.107-27.443-27.776-14.464-73.421-53.709-67.072-153.907 0.64-10.163 9.088-17.997 19.149-17.997 0.41 0 0.819 0 1.229 0.026 10.598 0.666 18.637 9.805 17.946 20.378-4.736 74.573 22.656 105.011 46.464 117.427 12.698 6.605 34.79 20.71 48 29.107l5.325 3.379c63.923 40.397 69.786 126.285 70.016 131.072 0.026 94.797-84.762 171.904-188.979 171.904z"  horiz-adv-x="1024" />

    
    <glyph glyph-name="3baojingyujing" unicode="&#58945;" d="M245.535671 519.582955l-145.768945 92.173283L75.472414 565.669596l145.768945-92.172259L245.535671 519.582955 245.535671 519.582955zM537.081747 819.150728l-48.586578 0 0-253.481132 48.586578 0L537.081747 819.150728 537.081747 819.150728zM367.017466 565.669596l-97.181343 184.351682-48.594765-23.043832 97.181343-184.328146L367.017466 565.669596 367.017466 565.669596zM805.96773 726.613148l-50.228985 23.401989-97.18339-184.345542 48.587602-23.020296L805.96773 726.613148 805.96773 726.613148zM512.787434 542.650323c-165.463496 0-327.776232-100.480482-386.280694-229.132584l-0.099261 0 0-254.024507-2.343371-115.980501 777.448698 0 0.475837 97.955986L901.988644 322.199469C841.154114 446.244646 674.476977 542.650323 512.787434 542.650323L512.787434 542.650323zM828.625776 12.619668 488.495168 12.619668l1.469468 435.892625c16.301268-1.207501 211.059973 34.974559 338.662163-159.362544L828.626799 12.619668 828.625776 12.619668zM804.33351 519.582955l24.292266-46.085618 121.476679 92.172259-24.293289 46.086641L804.33351 519.582955 804.33351 519.582955zM804.33351 519.582955"  horiz-adv-x="1024" />

    
    </font>
</defs>
</svg>
